solid
  facet normal -0 1 0
    outer loop
      vertex  -48.3447 12.6614 15
      vertex  -37.8897 12.6614 15
      vertex  -48.3447 12.6614 -15
    endloop
  endfacet
  facet normal 0 1 0
    outer loop
      vertex  -48.3447 12.6614 -15
      vertex  -37.8897 12.6614 15
      vertex  -37.8897 12.6614 -15
    endloop
  endfacet
  facet normal -0.95104 0.309067 0
    outer loop
      vertex  -35.7438 19.2649 15
      vertex  -35.7438 19.2649 -15
      vertex  -37.8897 12.6614 15
    endloop
  endfacet
  facet normal -0.809016 0.587787 0
    outer loop
      vertex  -35.7438 19.2649 15
      vertex  -26.9927 31.3097 -15
      vertex  -35.7438 19.2649 -15
    endloop
  endfacet
  facet normal -0.95104 0.309067 0
    outer loop
      vertex  -37.8897 12.6614 15
      vertex  -35.7438 19.2649 -15
      vertex  -37.8897 12.6614 -15
    endloop
  endfacet
  facet normal -0.809016 0.587787 0
    outer loop
      vertex  -26.9927 31.3097 15
      vertex  -26.9927 31.3097 -15
      vertex  -35.7438 19.2649 15
    endloop
  endfacet
  facet normal -0.587814 0.808996 0
    outer loop
      vertex  -26.9927 31.3097 15
      vertex  -14.9487 40.0608 -15
      vertex  -26.9927 31.3097 -15
    endloop
  endfacet
  facet normal -0.587814 0.808996 0
    outer loop
      vertex  -14.9487 40.0608 15
      vertex  -14.9487 40.0608 -15
      vertex  -26.9927 31.3097 15
    endloop
  endfacet
  facet normal -0.309 0.951062 0
    outer loop
      vertex  -14.9487 40.0608 15
      vertex  -0.788675 44.6614 -15
      vertex  -14.9487 40.0608 -15
    endloop
  endfacet
  facet normal -0.309 0.951062 0
    outer loop
      vertex  -0.788675 44.6614 15
      vertex  -0.788675 44.6614 -15
      vertex  -14.9487 40.0608 15
    endloop
  endfacet
  facet normal 0 1 0
    outer loop
      vertex  -0.788675 44.6614 15
      vertex  14.0993 44.6614 -15
      vertex  -0.788675 44.6614 -15
    endloop
  endfacet
  facet normal 0 1 0
    outer loop
      vertex  14.0993 44.6614 15
      vertex  14.0993 44.6614 -15
      vertex  -0.788675 44.6614 15
    endloop
  endfacet
  facet normal 0.309 0.951062 0
    outer loop
      vertex  14.0993 44.6614 15
      vertex  28.2593 40.0608 -15
      vertex  14.0993 44.6614 -15
    endloop
  endfacet
  facet normal 0.309 0.951062 0
    outer loop
      vertex  28.2593 40.0608 15
      vertex  28.2593 40.0608 -15
      vertex  14.0993 44.6614 15
    endloop
  endfacet
  facet normal 0.587814 0.808996 0
    outer loop
      vertex  28.2593 40.0608 15
      vertex  40.3032 31.3097 -15
      vertex  28.2593 40.0608 -15
    endloop
  endfacet
  facet normal 0.587814 0.808996 0
    outer loop
      vertex  40.3032 31.3097 15
      vertex  40.3032 31.3097 -15
      vertex  28.2593 40.0608 15
    endloop
  endfacet
  facet normal 0.809016 0.587787 0
    outer loop
      vertex  40.3032 31.3097 15
      vertex  49.0543 19.2649 -15
      vertex  40.3032 31.3097 -15
    endloop
  endfacet
  facet normal 0.809016 0.587787 0
    outer loop
      vertex  49.0543 19.2649 15
      vertex  49.0543 19.2649 -15
      vertex  40.3032 31.3097 15
    endloop
  endfacet
  facet normal 0.951051 0.309034 0
    outer loop
      vertex  49.0543 19.2649 15
      vertex  53.6553 5.10544 -15
      vertex  49.0543 19.2649 -15
    endloop
  endfacet
  facet normal 0.951051 0.309034 0
    outer loop
      vertex  53.6553 5.10544 15
      vertex  53.6553 5.10544 -15
      vertex  49.0543 19.2649 15
    endloop
  endfacet
  facet normal 1 0 0
    outer loop
      vertex  53.6553 5.10544 15
      vertex  53.6553 -9.78262 -15
      vertex  53.6553 5.10544 -15
    endloop
  endfacet
  facet normal 1 -0 0
    outer loop
      vertex  53.6553 -9.78262 15
      vertex  53.6553 -9.78262 -15
      vertex  53.6553 5.10544 15
    endloop
  endfacet
  facet normal 0.951052 -0.309031 0
    outer loop
      vertex  53.6553 -9.78262 15
      vertex  49.0543 -23.9422 -15
      vertex  53.6553 -9.78262 -15
    endloop
  endfacet
  facet normal 0.951052 -0.309031 0
    outer loop
      vertex  49.0543 -23.9422 15
      vertex  49.0543 -23.9422 -15
      vertex  53.6553 -9.78262 15
    endloop
  endfacet
  facet normal 0.809016 -0.587787 0
    outer loop
      vertex  49.0543 -23.9422 15
      vertex  40.3032 -35.987 -15
      vertex  49.0543 -23.9422 -15
    endloop
  endfacet
  facet normal 0.809016 -0.587787 0
    outer loop
      vertex  40.3032 -35.987 15
      vertex  40.3032 -35.987 -15
      vertex  49.0543 -23.9422 15
    endloop
  endfacet
  facet normal 0.58783 -0.808984 0
    outer loop
      vertex  40.3032 -35.987 15
      vertex  37.6553 -37.911 -15
      vertex  40.3032 -35.987 -15
    endloop
  endfacet
  facet normal 0.58783 -0.808984 0
    outer loop
      vertex  37.6553 -37.911 15
      vertex  37.6553 -37.911 -15
      vertex  40.3032 -35.987 15
    endloop
  endfacet
  facet normal -0 0 -1
    outer loop
      vertex  -35.7438 -23.9422 15
      vertex  -47.4717 -29.9176 15
      vertex  -37.8897 -17.3386 15
    endloop
  endfacet
  facet normal 0 0 -1
    outer loop
      vertex  -35.7438 -23.9422 15
      vertex  -40.6267 -39.3386 15
      vertex  -47.4717 -29.9176 15
    endloop
  endfacet
  facet normal -0 0 -1
    outer loop
      vertex  -37.8897 -17.3386 15
      vertex  -47.4717 -29.9176 15
      vertex  -48.3447 -17.3386 15
    endloop
  endfacet
  facet normal -0 0 -1
    outer loop
      vertex  -26.9927 -35.987 15
      vertex  -40.6267 -39.3386 15
      vertex  -35.7438 -23.9422 15
    endloop
  endfacet
  facet normal -0 -0 -1
    outer loop
      vertex  -48.3447 -17.3386 15
      vertex  -47.4717 -29.9176 15
      vertex  -53.3447 -11.8418 15
    endloop
  endfacet
  facet normal 0 -0 -1
    outer loop
      vertex  -26.9927 -35.987 15
      vertex  -22.3797 -39.3386 15
      vertex  -40.6267 -39.3386 15
    endloop
  endfacet
  facet normal 0 0 -1
    outer loop
      vertex  -48.3447 -17.3386 15
      vertex  -53.3447 -11.8418 15
      vertex  -48.3447 12.6614 15
    endloop
  endfacet
  facet normal 0 0 -1
    outer loop
      vertex  -48.3447 12.6614 15
      vertex  -53.3447 -11.8418 15
      vertex  -53.3447 7.16446 15
    endloop
  endfacet
  facet normal -0 0 -1
    outer loop
      vertex  -48.3447 12.6614 15
      vertex  -53.3447 7.16446 15
      vertex  -47.4717 25.2403 15
    endloop
  endfacet
  facet normal -0 0 -1
    outer loop
      vertex  -35.7438 19.2649 15
      vertex  -48.3447 12.6614 15
      vertex  -47.4717 25.2403 15
    endloop
  endfacet
  facet normal 0 0 -1
    outer loop
      vertex  -37.8897 12.6614 15
      vertex  -48.3447 12.6614 15
      vertex  -35.7438 19.2649 15
    endloop
  endfacet
  facet normal 0 0 -1
    outer loop
      vertex  -35.7438 19.2649 15
      vertex  -47.4717 25.2403 15
      vertex  -26.9927 31.3097 15
    endloop
  endfacet
  facet normal -0 0 -1
    outer loop
      vertex  -26.9927 31.3097 15
      vertex  -47.4717 25.2403 15
      vertex  -36.2997 40.6167 15
    endloop
  endfacet
  facet normal 0 0 -1
    outer loop
      vertex  -26.9927 31.3097 15
      vertex  -36.2997 40.6167 15
      vertex  -14.9487 40.0608 15
    endloop
  endfacet
  facet normal 0 0 -1
    outer loop
      vertex  -14.9487 40.0608 15
      vertex  -36.2997 40.6167 15
      vertex  -20.9237 51.7881 15
    endloop
  endfacet
  facet normal 0 0 -1
    outer loop
      vertex  -14.9487 40.0608 15
      vertex  -20.9237 51.7881 15
      vertex  -0.788675 44.6614 15
    endloop
  endfacet
  facet normal 0 0 -1
    outer loop
      vertex  -0.788675 44.6614 15
      vertex  -20.9237 51.7881 15
      vertex  -2.84776 57.6614 15
    endloop
  endfacet
  facet normal 0 0 -1
    outer loop
      vertex  -0.788675 44.6614 15
      vertex  -2.84776 57.6614 15
      vertex  14.0993 44.6614 15
    endloop
  endfacet
  facet normal 0 0 -1
    outer loop
      vertex  14.0993 44.6614 15
      vertex  -2.84776 57.6614 15
      vertex  16.1583 57.6614 15
    endloop
  endfacet
  facet normal 0 0 -1
    outer loop
      vertex  14.0993 44.6614 15
      vertex  16.1583 57.6614 15
      vertex  28.2593 40.0608 15
    endloop
  endfacet
  facet normal 0 0 -1
    outer loop
      vertex  28.2593 40.0608 15
      vertex  16.1583 57.6614 15
      vertex  34.2343 51.7881 15
    endloop
  endfacet
  facet normal 0 0 -1
    outer loop
      vertex  28.2593 40.0608 15
      vertex  34.2343 51.7881 15
      vertex  40.3032 31.3097 15
    endloop
  endfacet
  facet normal 0 0 -1
    outer loop
      vertex  40.3032 31.3097 15
      vertex  34.2343 51.7881 15
      vertex  49.6103 40.6167 15
    endloop
  endfacet
  facet normal 0 0 -1
    outer loop
      vertex  40.3032 31.3097 15
      vertex  49.6103 40.6167 15
      vertex  49.0543 19.2649 15
    endloop
  endfacet
  facet normal 0 0 -1
    outer loop
      vertex  49.0543 19.2649 15
      vertex  49.6103 40.6167 15
      vertex  60.7822 25.2403 15
    endloop
  endfacet
  facet normal 0 0 -1
    outer loop
      vertex  49.0543 19.2649 15
      vertex  60.7822 25.2403 15
      vertex  53.6553 5.10544 15
    endloop
  endfacet
  facet normal 0 0 -1
    outer loop
      vertex  53.6553 5.10544 15
      vertex  60.7822 25.2403 15
      vertex  66.6553 7.16446 15
    endloop
  endfacet
  facet normal 0 0 -1
    outer loop
      vertex  53.6553 5.10544 15
      vertex  66.6553 7.16446 15
      vertex  53.6553 -9.78262 15
    endloop
  endfacet
  facet normal 0 0 -1
    outer loop
      vertex  53.6553 -9.78262 15
      vertex  66.6553 7.16446 15
      vertex  66.6553 -11.8418 15
    endloop
  endfacet
  facet normal 0 -0 -1
    outer loop
      vertex  53.6553 -9.78262 15
      vertex  66.6553 -11.8418 15
      vertex  49.0543 -23.9422 15
    endloop
  endfacet
  facet normal 0 0 -1
    outer loop
      vertex  49.0543 -23.9422 15
      vertex  66.6553 -11.8418 15
      vertex  60.7822 -29.9176 15
    endloop
  endfacet
  facet normal 0 -0 -1
    outer loop
      vertex  49.0543 -23.9422 15
      vertex  60.7822 -29.9176 15
      vertex  40.3032 -35.987 15
    endloop
  endfacet
  facet normal 0 0 -1
    outer loop
      vertex  40.3032 -35.987 15
      vertex  60.7822 -29.9176 15
      vertex  49.6103 -45.294 15
    endloop
  endfacet
  facet normal 0 -0 -1
    outer loop
      vertex  40.3032 -35.987 15
      vertex  49.6103 -45.294 15
      vertex  37.6553 -37.911 15
    endloop
  endfacet
  facet normal 0 0 -1
    outer loop
      vertex  37.6553 -37.911 15
      vertex  49.6103 -45.294 15
      vertex  37.6553 -53.9798 15
    endloop
  endfacet
  facet normal -0.95104 -0.309067 -0
    outer loop
      vertex  -35.7438 -23.9422 15
      vertex  -37.8897 -17.3386 -15
      vertex  -35.7438 -23.9422 -15
    endloop
  endfacet
  facet normal -0.95104 -0.309067 -0
    outer loop
      vertex  -37.8897 -17.3386 15
      vertex  -37.8897 -17.3386 -15
      vertex  -35.7438 -23.9422 15
    endloop
  endfacet
  facet normal -0.809016 -0.587787 -0
    outer loop
      vertex  -35.7438 -23.9422 15
      vertex  -35.7438 -23.9422 -15
      vertex  -26.9927 -35.987 15
    endloop
  endfacet
  facet normal -0.809016 -0.587787 -0
    outer loop
      vertex  -26.9927 -35.987 15
      vertex  -35.7438 -23.9422 -15
      vertex  -26.9927 -35.987 -15
    endloop
  endfacet
  facet normal -0.587809 -0.809 0
    outer loop
      vertex  -26.9927 -35.987 -15
      vertex  -22.3797 -39.3386 -15
      vertex  -26.9927 -35.987 15
    endloop
  endfacet
  facet normal -0.587809 -0.809 0
    outer loop
      vertex  -26.9927 -35.987 15
      vertex  -22.3797 -39.3386 -15
      vertex  -22.3797 -39.3386 15
    endloop
  endfacet
  facet normal 0 -1 0
    outer loop
      vertex  -22.3797 -39.3386 -15
      vertex  -22.3447 -39.3386 -17
      vertex  -22.3797 -39.3386 15
    endloop
  endfacet
  facet normal 0 -1 -0
    outer loop
      vertex  -22.3797 -39.3386 -15
      vertex  -40.6267 -39.3386 -17
      vertex  -22.3447 -39.3386 -17
    endloop
  endfacet
  facet normal 0 -1 0
    outer loop
      vertex  -22.3797 -39.3386 15
      vertex  -22.3447 -39.3386 -17
      vertex  -22.3447 -39.3386 17
    endloop
  endfacet
  facet normal 0 -1 0
    outer loop
      vertex  -40.6267 -39.3386 -15
      vertex  -40.6267 -39.3386 -17
      vertex  -22.3797 -39.3386 -15
    endloop
  endfacet
  facet normal 0 -1 0
    outer loop
      vertex  -22.3797 -39.3386 15
      vertex  -22.3447 -39.3386 17
      vertex  -40.6267 -39.3386 15
    endloop
  endfacet
  facet normal 0 -1 0
    outer loop
      vertex  -40.6267 -39.3386 15
      vertex  -22.3447 -39.3386 17
      vertex  -40.6267 -39.3386 17
    endloop
  endfacet
  facet normal -1 -0 -0
    outer loop
      vertex  -48.3447 12.6614 15
      vertex  -48.3447 12.6614 -15
      vertex  -48.3447 -17.3386 15
    endloop
  endfacet
  facet normal -1 0 0
    outer loop
      vertex  -48.3447 -17.3386 15
      vertex  -48.3447 12.6614 -15
      vertex  -48.3447 -17.3386 -15
    endloop
  endfacet
  facet normal -0 0 1
    outer loop
      vertex  37.6553 -37.911 -15
      vertex  37.6553 -53.9798 -15
      vertex  40.3032 -35.987 -15
    endloop
  endfacet
  facet normal 0 0 1
    outer loop
      vertex  40.3032 -35.987 -15
      vertex  37.6553 -53.9798 -15
      vertex  49.6103 -45.294 -15
    endloop
  endfacet
  facet normal -0 0 1
    outer loop
      vertex  40.3032 -35.987 -15
      vertex  49.6103 -45.294 -15
      vertex  49.0543 -23.9422 -15
    endloop
  endfacet
  facet normal 0 0 1
    outer loop
      vertex  49.0543 -23.9422 -15
      vertex  49.6103 -45.294 -15
      vertex  60.7822 -29.9176 -15
    endloop
  endfacet
  facet normal -0 0 1
    outer loop
      vertex  49.0543 -23.9422 -15
      vertex  60.7822 -29.9176 -15
      vertex  53.6553 -9.78262 -15
    endloop
  endfacet
  facet normal 0 0 1
    outer loop
      vertex  53.6553 -9.78262 -15
      vertex  60.7822 -29.9176 -15
      vertex  66.6553 -11.8418 -15
    endloop
  endfacet
  facet normal -0 0 1
    outer loop
      vertex  53.6553 -9.78262 -15
      vertex  66.6553 -11.8418 -15
      vertex  53.6553 5.10544 -15
    endloop
  endfacet
  facet normal -0 0 1
    outer loop
      vertex  53.6553 5.10544 -15
      vertex  66.6553 -11.8418 -15
      vertex  66.6553 7.16446 -15
    endloop
  endfacet
  facet normal 0 -0 1
    outer loop
      vertex  53.6553 5.10544 -15
      vertex  66.6553 7.16446 -15
      vertex  49.0543 19.2649 -15
    endloop
  endfacet
  facet normal -0 0 1
    outer loop
      vertex  49.0543 19.2649 -15
      vertex  66.6553 7.16446 -15
      vertex  60.7822 25.2403 -15
    endloop
  endfacet
  facet normal 0 -0 1
    outer loop
      vertex  49.0543 19.2649 -15
      vertex  60.7822 25.2403 -15
      vertex  40.3032 31.3097 -15
    endloop
  endfacet
  facet normal -0 0 1
    outer loop
      vertex  40.3032 31.3097 -15
      vertex  60.7822 25.2403 -15
      vertex  49.6103 40.6167 -15
    endloop
  endfacet
  facet normal 0 -0 1
    outer loop
      vertex  40.3032 31.3097 -15
      vertex  49.6103 40.6167 -15
      vertex  28.2593 40.0608 -15
    endloop
  endfacet
  facet normal 0 0 1
    outer loop
      vertex  28.2593 40.0608 -15
      vertex  49.6103 40.6167 -15
      vertex  34.2343 51.7881 -15
    endloop
  endfacet
  facet normal 0 -0 1
    outer loop
      vertex  28.2593 40.0608 -15
      vertex  34.2343 51.7881 -15
      vertex  14.0993 44.6614 -15
    endloop
  endfacet
  facet normal 0 0 1
    outer loop
      vertex  14.0993 44.6614 -15
      vertex  34.2343 51.7881 -15
      vertex  16.1583 57.6614 -15
    endloop
  endfacet
  facet normal 0 -0 1
    outer loop
      vertex  14.0993 44.6614 -15
      vertex  16.1583 57.6614 -15
      vertex  -0.788675 44.6614 -15
    endloop
  endfacet
  facet normal 0 -0 1
    outer loop
      vertex  -0.788675 44.6614 -15
      vertex  16.1583 57.6614 -15
      vertex  -2.84776 57.6614 -15
    endloop
  endfacet
  facet normal 0 0 1
    outer loop
      vertex  -0.788675 44.6614 -15
      vertex  -2.84776 57.6614 -15
      vertex  -14.9487 40.0608 -15
    endloop
  endfacet
  facet normal 0 -0 1
    outer loop
      vertex  -14.9487 40.0608 -15
      vertex  -2.84776 57.6614 -15
      vertex  -20.9237 51.7881 -15
    endloop
  endfacet
  facet normal 0 0 1
    outer loop
      vertex  -14.9487 40.0608 -15
      vertex  -20.9237 51.7881 -15
      vertex  -26.9927 31.3097 -15
    endloop
  endfacet
  facet normal 0 -0 1
    outer loop
      vertex  -26.9927 31.3097 -15
      vertex  -20.9237 51.7881 -15
      vertex  -36.2997 40.6167 -15
    endloop
  endfacet
  facet normal 0 0 1
    outer loop
      vertex  -26.9927 31.3097 -15
      vertex  -36.2997 40.6167 -15
      vertex  -35.7438 19.2649 -15
    endloop
  endfacet
  facet normal 0 0 1
    outer loop
      vertex  -35.7438 19.2649 -15
      vertex  -36.2997 40.6167 -15
      vertex  -47.4717 25.2403 -15
    endloop
  endfacet
  facet normal 0 0 1
    outer loop
      vertex  -35.7438 19.2649 -15
      vertex  -47.4717 25.2403 -15
      vertex  -37.8897 12.6614 -15
    endloop
  endfacet
  facet normal 0 0 1
    outer loop
      vertex  -37.8897 12.6614 -15
      vertex  -47.4717 25.2403 -15
      vertex  -48.3447 12.6614 -15
    endloop
  endfacet
  facet normal 0 0 1
    outer loop
      vertex  -53.3447 7.16446 -15
      vertex  -48.3447 12.6614 -15
      vertex  -47.4717 25.2403 -15
    endloop
  endfacet
  facet normal -0 0 1
    outer loop
      vertex  -53.3447 7.16446 -15
      vertex  -48.3447 -17.3386 -15
      vertex  -48.3447 12.6614 -15
    endloop
  endfacet
  facet normal -0 0 1
    outer loop
      vertex  -53.3447 -11.8418 -15
      vertex  -48.3447 -17.3386 -15
      vertex  -53.3447 7.16446 -15
    endloop
  endfacet
  facet normal 0 0 1
    outer loop
      vertex  -53.3447 -11.8418 -15
      vertex  -47.4717 -29.9176 -15
      vertex  -48.3447 -17.3386 -15
    endloop
  endfacet
  facet normal 0 0 1
    outer loop
      vertex  -35.7438 -23.9422 -15
      vertex  -48.3447 -17.3386 -15
      vertex  -47.4717 -29.9176 -15
    endloop
  endfacet
  facet normal 0 0 1
    outer loop
      vertex  -37.8897 -17.3386 -15
      vertex  -48.3447 -17.3386 -15
      vertex  -35.7438 -23.9422 -15
    endloop
  endfacet
  facet normal 0 0 1
    outer loop
      vertex  -35.7438 -23.9422 -15
      vertex  -47.4717 -29.9176 -15
      vertex  -26.9927 -35.987 -15
    endloop
  endfacet
  facet normal 0 0 1
    outer loop
      vertex  -26.9927 -35.987 -15
      vertex  -47.4717 -29.9176 -15
      vertex  -40.6267 -39.3386 -15
    endloop
  endfacet
  facet normal 0 0 1
    outer loop
      vertex  -26.9927 -35.987 -15
      vertex  -40.6267 -39.3386 -15
      vertex  -22.3797 -39.3386 -15
    endloop
  endfacet
  facet normal 1 0 0
    outer loop
      vertex  37.6553 -53.9798 -15
      vertex  37.6553 -37.911 -15
      vertex  37.6553 -53.9798 15
    endloop
  endfacet
  facet normal 1 -0 0
    outer loop
      vertex  37.6553 -53.9798 15
      vertex  37.6553 -37.911 -15
      vertex  37.6553 -37.911 15
    endloop
  endfacet
  facet normal -1 0 0
    outer loop
      vertex  -22.3447 -55.4331 -17
      vertex  -22.3447 -55.4331 17
      vertex  -22.3447 -46.7821 -8.5
    endloop
  endfacet
  facet normal -1 0 0
    outer loop
      vertex  -22.3447 -46.7821 -8.5
      vertex  -22.3447 -55.4331 17
      vertex  -22.3447 -48.2254 11
    endloop
  endfacet
  facet normal -1 0 0
    outer loop
      vertex  -22.3447 -46.7821 -8.5
      vertex  -22.3447 -48.2254 -11
      vertex  -22.3447 -55.4331 -17
    endloop
  endfacet
  facet normal -1 0 0
    outer loop
      vertex  -22.3447 -55.4331 17
      vertex  -22.3447 -46.7821 13.5
      vertex  -22.3447 -48.2254 11
    endloop
  endfacet
  facet normal -1 0 0
    outer loop
      vertex  -22.3447 -46.7821 -8.5
      vertex  -22.3447 -48.2254 11
      vertex  -22.3447 -43.8952 -8.5
    endloop
  endfacet
  facet normal -1 0 0
    outer loop
      vertex  -22.3447 -55.4331 -17
      vertex  -22.3447 -48.2254 -11
      vertex  -22.3447 -46.7821 -13.5
    endloop
  endfacet
  facet normal -1 0 0
    outer loop
      vertex  -22.3447 -55.4331 17
      vertex  -22.3447 -43.8952 13.5
      vertex  -22.3447 -46.7821 13.5
    endloop
  endfacet
  facet normal -1 0 0
    outer loop
      vertex  -22.3447 -43.8952 -8.5
      vertex  -22.3447 -48.2254 11
      vertex  -22.3447 -46.7821 8.5
    endloop
  endfacet
  facet normal -1 0 0
    outer loop
      vertex  -22.3447 -55.4331 -17
      vertex  -22.3447 -46.7821 -13.5
      vertex  -22.3447 -39.3386 -17
    endloop
  endfacet
  facet normal -1 -0 0
    outer loop
      vertex  -22.3447 -39.3386 17
      vertex  -22.3447 -43.8952 13.5
      vertex  -22.3447 -55.4331 17
    endloop
  endfacet
  facet normal -1 0 0
    outer loop
      vertex  -22.3447 -43.8952 -8.5
      vertex  -22.3447 -46.7821 8.5
      vertex  -22.3447 -42.4519 -11
    endloop
  endfacet
  facet normal -1 0 0
    outer loop
      vertex  -22.3447 -39.3386 -17
      vertex  -22.3447 -46.7821 -13.5
      vertex  -22.3447 -43.8952 -13.5
    endloop
  endfacet
  facet normal -1 0 0
    outer loop
      vertex  -22.3447 -39.3386 17
      vertex  -22.3447 -42.4519 11
      vertex  -22.3447 -43.8952 13.5
    endloop
  endfacet
  facet normal -1 0 0
    outer loop
      vertex  -22.3447 -42.4519 -11
      vertex  -22.3447 -46.7821 8.5
      vertex  -22.3447 -43.8952 8.5
    endloop
  endfacet
  facet normal -1 0 0
    outer loop
      vertex  -22.3447 -39.3386 -17
      vertex  -22.3447 -43.8952 -13.5
      vertex  -22.3447 -42.4519 -11
    endloop
  endfacet
  facet normal -1 0 0
    outer loop
      vertex  -22.3447 -39.3386 -17
      vertex  -22.3447 -42.4519 11
      vertex  -22.3447 -39.3386 17
    endloop
  endfacet
  facet normal -1 0 0
    outer loop
      vertex  -22.3447 -42.4519 -11
      vertex  -22.3447 -43.8952 8.5
      vertex  -22.3447 -39.3386 -17
    endloop
  endfacet
  facet normal -1 0 0
    outer loop
      vertex  -22.3447 -39.3386 -17
      vertex  -22.3447 -43.8952 8.5
      vertex  -22.3447 -42.4519 11
    endloop
  endfacet
  facet normal -0 -0 1
    outer loop
      vertex  -36.2997 -45.294 -17
      vertex  -22.3447 -55.4331 -17
      vertex  -40.6267 -39.3386 -17
    endloop
  endfacet
  facet normal -0 0 1
    outer loop
      vertex  -40.6267 -39.3386 -17
      vertex  -22.3447 -55.4331 -17
      vertex  -22.3447 -39.3386 -17
    endloop
  endfacet
  facet normal -0.809002 -0.587806 0
    outer loop
      vertex  -36.2997 -45.294 17
      vertex  -36.2997 -45.294 21
      vertex  -40.6267 -39.3386 17
    endloop
  endfacet
  facet normal -0.58779 -0.809013 0
    outer loop
      vertex  -36.2997 -45.294 17
      vertex  -20.9237 -56.4654 21
      vertex  -36.2997 -45.294 21
    endloop
  endfacet
  facet normal -0.809006 -0.5878 1.3096e-05
    outer loop
      vertex  -40.6267 -39.3386 17
      vertex  -36.2997 -45.294 21
      vertex  -47.4717 -29.9176 21
    endloop
  endfacet
  facet normal -0.809009 -0.587796 -0
    outer loop
      vertex  -40.6267 -39.3386 17
      vertex  -47.4717 -29.9176 21
      vertex  -40.6267 -39.3386 15
    endloop
  endfacet
  facet normal -0.809009 -0.587796 0
    outer loop
      vertex  -40.6267 -39.3386 15
      vertex  -47.4717 -29.9176 21
      vertex  -47.4717 -29.9176 15
    endloop
  endfacet
  facet normal -0.951059 -0.309009 -0
    outer loop
      vertex  -47.4717 -29.9176 21
      vertex  -53.3447 -11.8418 15
      vertex  -47.4717 -29.9176 15
    endloop
  endfacet
  facet normal -0.587794 -0.809011 2.15897e-05
    outer loop
      vertex  -22.3447 -55.4331 17
      vertex  -20.9237 -56.4654 21
      vertex  -36.2997 -45.294 17
    endloop
  endfacet
  facet normal -0.587754 -0.80904 0
    outer loop
      vertex  -22.3447 -55.4331 17
      vertex  -20.9237 -56.4654 -21
      vertex  -20.9237 -56.4654 21
    endloop
  endfacet
  facet normal -0.309019 -0.951056 0
    outer loop
      vertex  -10.9117 -59.7185 -0.00742986
      vertex  -20.9237 -56.4654 21
      vertex  -20.9237 -56.4654 -21
    endloop
  endfacet
  facet normal -0.308925 -0.951086 4.97556e-05
    outer loop
      vertex  -10.7748 -59.7628 3.35251
      vertex  -20.9237 -56.4654 21
      vertex  -10.9117 -59.7185 -0.00742986
    endloop
  endfacet
  facet normal -0.309035 -0.951051 -2.00293e-05
    outer loop
      vertex  -10.7748 -59.7628 3.35251
      vertex  -10.1327 -59.9715 5.17081
      vertex  -20.9237 -56.4654 21
    endloop
  endfacet
  facet normal -0.30904 -0.951049 -2.36416e-05
    outer loop
      vertex  -20.9237 -56.4654 21
      vertex  -10.1327 -59.9715 5.17081
      vertex  -9.01475 -60.3349 8.33759
    endloop
  endfacet
  facet normal -0.308993 -0.951064 2.45743e-05
    outer loop
      vertex  -20.9237 -56.4654 21
      vertex  -9.01475 -60.3349 8.33759
      vertex  -7.86265 -60.7091 9.88953
    endloop
  endfacet
  facet normal -0.309023 -0.951055 -1.40818e-05
    outer loop
      vertex  -5.86375 -61.3587 12.583
      vertex  -20.9237 -56.4654 21
      vertex  -7.86265 -60.7091 9.88953
    endloop
  endfacet
  facet normal -0.308996 -0.951063 3.8549e-05
    outer loop
      vertex  -4.34568 -61.8518 13.7953
      vertex  -20.9237 -56.4654 21
      vertex  -5.86375 -61.3587 12.583
    endloop
  endfacet
  facet normal -0.309017 -0.951056 -1.46184e-05
    outer loop
      vertex  -4.34568 -61.8518 13.7953
      vertex  -2.84776 -62.3386 21
      vertex  -20.9237 -56.4654 21
    endloop
  endfacet
  facet normal -0.309098 -0.95103 4.12822e-05
    outer loop
      vertex  -10.9117 -59.7185 -0.00742986
      vertex  -20.9237 -56.4654 -21
      vertex  -10.9897 -59.6933 -1.92999
    endloop
  endfacet
  facet normal -0.308975 -0.95107 -2.91659e-05
    outer loop
      vertex  -10.9897 -59.6933 -1.92999
      vertex  -20.9237 -56.4654 -21
      vertex  -10.1288 -59.9729 -5.18507
    endloop
  endfacet
  facet normal -0.309072 -0.951039 4.33441e-05
    outer loop
      vertex  -20.9237 -56.4654 -21
      vertex  -9.63865 -60.1322 -7.04127
      vertex  -10.1288 -59.9729 -5.18507
    endloop
  endfacet
  facet normal -0.951059 -0.309009 -0
    outer loop
      vertex  -53.3447 -11.8418 21
      vertex  -53.3447 -11.8418 15
      vertex  -47.4717 -29.9176 21
    endloop
  endfacet
  facet normal -1 0 0
    outer loop
      vertex  -53.3447 -11.8418 21
      vertex  -53.3447 7.16446 15
      vertex  -53.3447 -11.8418 15
    endloop
  endfacet
  facet normal -0.309081 -0.951036 0
    outer loop
      vertex  -2.84776 -62.3386 14.9918
      vertex  -2.84776 -62.3386 21
      vertex  -4.34568 -61.8518 13.7953
    endloop
  endfacet
  facet normal 0 -1 0
    outer loop
      vertex  -2.84776 -62.3386 14.9918
      vertex  0.17031 -62.3386 16.523
      vertex  -2.84776 -62.3386 21
    endloop
  endfacet
  facet normal 0 -1 0
    outer loop
      vertex  -2.84776 -62.3386 21
      vertex  0.17031 -62.3386 16.523
      vertex  5.32827 -62.3386 17.7004
    endloop
  endfacet
  facet normal 0 -1 0
    outer loop
      vertex  -2.84776 -62.3386 21
      vertex  5.32827 -62.3386 17.7004
      vertex  16.1583 -62.3386 21
    endloop
  endfacet
  facet normal -0.308972 -0.951071 -4.53065e-05
    outer loop
      vertex  -7.85471 -60.7116 -9.90206
      vertex  -9.63865 -60.1322 -7.04127
      vertex  -20.9237 -56.4654 -21
    endloop
  endfacet
  facet normal -0.309046 -0.951047 5.06943e-05
    outer loop
      vertex  -20.9237 -56.4654 -21
      vertex  -6.84165 -61.0409 -11.5279
      vertex  -7.85471 -60.7116 -9.90206
    endloop
  endfacet
  facet normal -0.587754 -0.809039 0
    outer loop
      vertex  -22.3447 -55.4331 -17
      vertex  -20.9237 -56.4654 -21
      vertex  -22.3447 -55.4331 17
    endloop
  endfacet
  facet normal -0.58779 -0.809013 -1.95945e-05
    outer loop
      vertex  -22.3447 -55.4331 -17
      vertex  -36.2997 -45.294 -21
      vertex  -20.9237 -56.4654 -21
    endloop
  endfacet
  facet normal -0.587794 -0.809011 -0
    outer loop
      vertex  -36.2997 -45.294 -17
      vertex  -36.2997 -45.294 -21
      vertex  -22.3447 -55.4331 -17
    endloop
  endfacet
  facet normal -0.809006 -0.5878 -0
    outer loop
      vertex  -36.2997 -45.294 -17
      vertex  -47.4717 -29.9176 -21
      vertex  -36.2997 -45.294 -21
    endloop
  endfacet
  facet normal -0.809002 -0.587806 -3.38131e-05
    outer loop
      vertex  -40.6267 -39.3386 -17
      vertex  -47.4717 -29.9176 -21
      vertex  -36.2997 -45.294 -17
    endloop
  endfacet
  facet normal -0.809009 -0.587796 0
    outer loop
      vertex  -40.6267 -39.3386 -17
      vertex  -47.4717 -29.9176 -15
      vertex  -47.4717 -29.9176 -21
    endloop
  endfacet
  facet normal -0.809009 -0.587796 -0
    outer loop
      vertex  -40.6267 -39.3386 -15
      vertex  -47.4717 -29.9176 -15
      vertex  -40.6267 -39.3386 -17
    endloop
  endfacet
  facet normal -0.951059 -0.309009 0
    outer loop
      vertex  -47.4717 -29.9176 -21
      vertex  -47.4717 -29.9176 -15
      vertex  -53.3447 -11.8418 -21
    endloop
  endfacet
  facet normal -0.309021 -0.951055 8.66084e-06
    outer loop
      vertex  -20.9237 -56.4654 -21
      vertex  -4.29173 -61.8695 -13.7393
      vertex  -6.84165 -61.0409 -11.5279
    endloop
  endfacet
  facet normal -0.309017 -0.951056 3.45538e-07
    outer loop
      vertex  -2.84776 -62.3386 -21
      vertex  -4.29173 -61.8695 -13.7393
      vertex  -20.9237 -56.4654 -21
    endloop
  endfacet
  facet normal -0.309019 -0.951056 0
    outer loop
      vertex  -2.84776 -62.3386 -21
      vertex  -2.84776 -62.3386 -14.9918
      vertex  -4.29173 -61.8695 -13.7393
    endloop
  endfacet
  facet normal -0 -1 0
    outer loop
      vertex  0.17031 -62.3386 -16.523
      vertex  -2.84776 -62.3386 -14.9918
      vertex  -2.84776 -62.3386 -21
    endloop
  endfacet
  facet normal 0 -1 0
    outer loop
      vertex  -2.84776 -62.3386 -21
      vertex  5.32827 -62.3386 -17.7004
      vertex  0.17031 -62.3386 -16.523
    endloop
  endfacet
  facet normal -0.951059 -0.309009 0
    outer loop
      vertex  -53.3447 -11.8418 -21
      vertex  -47.4717 -29.9176 -15
      vertex  -53.3447 -11.8418 -15
    endloop
  endfacet
  facet normal -1 0 0
    outer loop
      vertex  -53.3447 -11.8418 -21
      vertex  -53.3447 -11.8418 -15
      vertex  -53.3447 7.16446 -21
    endloop
  endfacet
  facet normal -1 -0 -0
    outer loop
      vertex  -53.3447 7.16446 21
      vertex  -53.3447 7.16446 15
      vertex  -53.3447 -11.8418 21
    endloop
  endfacet
  facet normal -0.951059 0.309009 0
    outer loop
      vertex  -53.3447 7.16446 21
      vertex  -47.4717 25.2403 15
      vertex  -53.3447 7.16446 15
    endloop
  endfacet
  facet normal 0 -1 0
    outer loop
      vertex  16.1583 -62.3386 21
      vertex  5.32827 -62.3386 17.7004
      vertex  10.6052 -62.3386 17.305
    endloop
  endfacet
  facet normal 0 -1 0
    outer loop
      vertex  16.1583 -62.3386 21
      vertex  10.6052 -62.3386 17.305
      vertex  15.5303 -62.3386 15.372
    endloop
  endfacet
  facet normal 0 -1 0
    outer loop
      vertex  15.5303 -62.3386 15.372
      vertex  16.1583 -62.3386 14.9918
      vertex  16.1583 -62.3386 21
    endloop
  endfacet
  facet normal 0.309024 -0.951054 0
    outer loop
      vertex  16.1583 -62.3386 21
      vertex  16.1583 -62.3386 14.9918
      vertex  19.6052 -61.2187 12.0023
    endloop
  endfacet
  facet normal 0.309017 -0.951056 -3.04486e-06
    outer loop
      vertex  16.1583 -62.3386 21
      vertex  19.6052 -61.2187 12.0023
      vertex  34.2343 -56.4654 21
    endloop
  endfacet
  facet normal 0 -1 0
    outer loop
      vertex  -2.84776 -62.3386 -21
      vertex  10.6052 -62.3386 -17.305
      vertex  5.32827 -62.3386 -17.7004
    endloop
  endfacet
  facet normal 0 -1 0
    outer loop
      vertex  16.1583 -62.3386 -21
      vertex  10.6052 -62.3386 -17.305
      vertex  -2.84776 -62.3386 -21
    endloop
  endfacet
  facet normal 0 -1 0
    outer loop
      vertex  16.1583 -62.3386 -21
      vertex  15.5303 -62.3386 -15.372
      vertex  10.6052 -62.3386 -17.305
    endloop
  endfacet
  facet normal 0 -1 -0
    outer loop
      vertex  16.1583 -62.3386 -14.9918
      vertex  15.5303 -62.3386 -15.372
      vertex  16.1583 -62.3386 -21
    endloop
  endfacet
  facet normal 0.309024 -0.951054 0
    outer loop
      vertex  16.1583 -62.3386 -14.9918
      vertex  16.1583 -62.3386 -21
      vertex  19.1743 -61.3587 -12.583
    endloop
  endfacet
  facet normal 0.309017 -0.951056 2.80186e-06
    outer loop
      vertex  19.1743 -61.3587 -12.583
      vertex  16.1583 -62.3386 -21
      vertex  34.2343 -56.4654 -21
    endloop
  endfacet
  facet normal 0.309007 -0.95106 -1.73798e-05
    outer loop
      vertex  19.1743 -61.3587 -12.583
      vertex  34.2343 -56.4654 -21
      vertex  19.5933 -61.2226 -12.0184
    endloop
  endfacet
  facet normal 0.309016 -0.951057 -4.0476e-07
    outer loop
      vertex  19.5933 -61.2226 -12.0184
      vertex  34.2343 -56.4654 -21
      vertex  22.3253 -60.3349 -8.33759
    endloop
  endfacet
  facet normal 0.308887 -0.951099 -0.000135444
    outer loop
      vertex  34.2343 -56.4654 -21
      vertex  22.5613 -60.2583 -7.67076
      vertex  22.3253 -60.3349 -8.33759
    endloop
  endfacet
  facet normal 0.309019 -0.951056 -6.87292e-06
    outer loop
      vertex  34.2343 -56.4654 -21
      vertex  24.0863 -59.7628 -3.35251
      vertex  22.5613 -60.2583 -7.67076
    endloop
  endfacet
  facet normal 0.309412 -0.950928 0.000243035
    outer loop
      vertex  24.1143 -59.7536 -2.64175
      vertex  24.0863 -59.7628 -3.35251
      vertex  34.2343 -56.4654 -21
    endloop
  endfacet
  facet normal 0.309014 -0.951058 0
    outer loop
      vertex  34.2343 -56.4654 21
      vertex  24.1143 -59.7536 -2.64175
      vertex  34.2343 -56.4654 -21
    endloop
  endfacet
  facet normal 0.309019 -0.951056 -6.11698e-06
    outer loop
      vertex  34.2343 -56.4654 21
      vertex  19.6052 -61.2187 12.0023
      vertex  20.1522 -61.0409 11.5279
    endloop
  endfacet
  facet normal 0.587797 -0.809008 0
    outer loop
      vertex  37.6553 -53.9798 -15
      vertex  34.2343 -56.4654 21
      vertex  34.2343 -56.4654 -21
    endloop
  endfacet
  facet normal 0.309012 -0.951058 5.66704e-06
    outer loop
      vertex  34.2343 -56.4654 21
      vertex  20.1522 -61.0409 11.5279
      vertex  22.5683 -60.2559 7.65212
    endloop
  endfacet
  facet normal 0.587798 -0.809008 0
    outer loop
      vertex  37.6553 -53.9798 15
      vertex  34.2343 -56.4654 21
      vertex  37.6553 -53.9798 -15
    endloop
  endfacet
  facet normal 0.308951 -0.951078 6.39606e-05
    outer loop
      vertex  22.5683 -60.2559 7.65212
      vertex  22.9492 -60.1322 7.04127
      vertex  34.2343 -56.4654 21
    endloop
  endfacet
  facet normal 0.58779 -0.809013 -6.22207e-06
    outer loop
      vertex  37.6553 -53.9798 15
      vertex  49.6103 -45.294 21
      vertex  34.2343 -56.4654 21
    endloop
  endfacet
  facet normal 0.309029 -0.951053 -5.48205e-06
    outer loop
      vertex  34.2343 -56.4654 21
      vertex  22.9492 -60.1322 7.04127
      vertex  24.1173 -59.7527 2.62177
    endloop
  endfacet
  facet normal 0.308916 -0.951089 6.34861e-05
    outer loop
      vertex  24.1173 -59.7527 2.62177
      vertex  24.3003 -59.6933 1.92999
      vertex  34.2343 -56.4654 21
    endloop
  endfacet
  facet normal 0.587788 -0.809015 0
    outer loop
      vertex  49.6103 -45.294 15
      vertex  49.6103 -45.294 21
      vertex  37.6553 -53.9798 15
    endloop
  endfacet
  facet normal 0.809006 -0.5878 0
    outer loop
      vertex  49.6103 -45.294 21
      vertex  49.6103 -45.294 15
      vertex  60.7822 -29.9176 21
    endloop
  endfacet
  facet normal 0.309083 -0.951035 -3.29276e-05
    outer loop
      vertex  34.2343 -56.4654 21
      vertex  24.3003 -59.6933 1.92999
      vertex  24.1143 -59.7536 -2.64175
    endloop
  endfacet
  facet normal 0.587788 -0.809015 8.00258e-06
    outer loop
      vertex  37.6553 -53.9798 -15
      vertex  34.2343 -56.4654 -21
      vertex  49.6103 -45.294 -15
    endloop
  endfacet
  facet normal 0.809006 -0.5878 0
    outer loop
      vertex  60.7822 -29.9176 21
      vertex  49.6103 -45.294 15
      vertex  60.7822 -29.9176 15
    endloop
  endfacet
  facet normal 0.951059 -0.309009 0
    outer loop
      vertex  60.7822 -29.9176 21
      vertex  60.7822 -29.9176 15
      vertex  66.6553 -11.8418 21
    endloop
  endfacet
  facet normal 0.58779 -0.809013 0
    outer loop
      vertex  49.6103 -45.294 -15
      vertex  34.2343 -56.4654 -21
      vertex  49.6103 -45.294 -21
    endloop
  endfacet
  facet normal 0.809006 -0.5878 0
    outer loop
      vertex  49.6103 -45.294 -21
      vertex  60.7822 -29.9176 -15
      vertex  49.6103 -45.294 -15
    endloop
  endfacet
  facet normal 0.809006 -0.5878 0
    outer loop
      vertex  60.7822 -29.9176 -21
      vertex  60.7822 -29.9176 -15
      vertex  49.6103 -45.294 -21
    endloop
  endfacet
  facet normal 0.951059 -0.309009 0
    outer loop
      vertex  60.7822 -29.9176 -21
      vertex  66.6553 -11.8418 -15
      vertex  60.7822 -29.9176 -15
    endloop
  endfacet
  facet normal 0.951059 -0.309009 0
    outer loop
      vertex  66.6553 -11.8418 21
      vertex  60.7822 -29.9176 15
      vertex  66.6553 -11.8418 15
    endloop
  endfacet
  facet normal 1 -0 0
    outer loop
      vertex  66.6553 -11.8418 21
      vertex  66.6553 -11.8418 15
      vertex  66.6553 7.16446 21
    endloop
  endfacet
  facet normal 0.951059 -0.309009 0
    outer loop
      vertex  66.6553 -11.8418 -21
      vertex  66.6553 -11.8418 -15
      vertex  60.7822 -29.9176 -21
    endloop
  endfacet
  facet normal 1 0 0
    outer loop
      vertex  66.6553 -11.8418 -21
      vertex  66.6553 7.16446 -15
      vertex  66.6553 -11.8418 -15
    endloop
  endfacet
  facet normal 1 0 0
    outer loop
      vertex  66.6553 7.16446 21
      vertex  66.6553 -11.8418 15
      vertex  66.6553 7.16446 15
    endloop
  endfacet
  facet normal 0.951059 0.309009 0
    outer loop
      vertex  66.6553 7.16446 21
      vertex  66.6553 7.16446 15
      vertex  60.7822 25.2403 21
    endloop
  endfacet
  facet normal 1 0 -0
    outer loop
      vertex  66.6553 7.16446 -21
      vertex  66.6553 7.16446 -15
      vertex  66.6553 -11.8418 -21
    endloop
  endfacet
  facet normal 0.951059 0.309009 -0
    outer loop
      vertex  66.6553 7.16446 -21
      vertex  60.7822 25.2403 -15
      vertex  66.6553 7.16446 -15
    endloop
  endfacet
  facet normal 0.951059 0.309009 0
    outer loop
      vertex  60.7822 25.2403 21
      vertex  66.6553 7.16446 15
      vertex  60.7822 25.2403 15
    endloop
  endfacet
  facet normal 0.809006 0.5878 0
    outer loop
      vertex  60.7822 25.2403 21
      vertex  60.7822 25.2403 15
      vertex  49.6103 40.6167 21
    endloop
  endfacet
  facet normal 0.951059 0.309009 -0
    outer loop
      vertex  60.7822 25.2403 -21
      vertex  60.7822 25.2403 -15
      vertex  66.6553 7.16446 -21
    endloop
  endfacet
  facet normal 0.809006 0.5878 -0
    outer loop
      vertex  60.7822 25.2403 -21
      vertex  49.6103 40.6167 -15
      vertex  60.7822 25.2403 -15
    endloop
  endfacet
  facet normal 0.809006 0.5878 0
    outer loop
      vertex  49.6103 40.6167 21
      vertex  60.7822 25.2403 15
      vertex  49.6103 40.6167 15
    endloop
  endfacet
  facet normal 0.58779 0.809013 0
    outer loop
      vertex  49.6103 40.6167 21
      vertex  49.6103 40.6167 15
      vertex  34.2343 51.7881 21
    endloop
  endfacet
  facet normal 0.809006 0.5878 -0
    outer loop
      vertex  49.6103 40.6167 -21
      vertex  49.6103 40.6167 -15
      vertex  60.7822 25.2403 -21
    endloop
  endfacet
  facet normal 0.58779 0.809013 -0
    outer loop
      vertex  49.6103 40.6167 -21
      vertex  34.2343 51.7881 -15
      vertex  49.6103 40.6167 -15
    endloop
  endfacet
  facet normal 0.58779 0.809013 0
    outer loop
      vertex  34.2343 51.7881 21
      vertex  49.6103 40.6167 15
      vertex  34.2343 51.7881 15
    endloop
  endfacet
  facet normal 0.309017 0.951056 0
    outer loop
      vertex  34.2343 51.7881 21
      vertex  34.2343 51.7881 15
      vertex  16.1583 57.6614 21
    endloop
  endfacet
  facet normal 0.58779 0.809013 -0
    outer loop
      vertex  34.2343 51.7881 -21
      vertex  34.2343 51.7881 -15
      vertex  49.6103 40.6167 -21
    endloop
  endfacet
  facet normal 0.309017 0.951056 -0
    outer loop
      vertex  34.2343 51.7881 -21
      vertex  16.1583 57.6614 -15
      vertex  34.2343 51.7881 -15
    endloop
  endfacet
  facet normal 0.309017 0.951056 0
    outer loop
      vertex  16.1583 57.6614 21
      vertex  34.2343 51.7881 15
      vertex  16.1583 57.6614 15
    endloop
  endfacet
  facet normal 0 1 0
    outer loop
      vertex  16.1583 57.6614 21
      vertex  16.1583 57.6614 15
      vertex  -2.84776 57.6614 21
    endloop
  endfacet
  facet normal -0.951059 0.309009 0
    outer loop
      vertex  -47.4717 25.2403 21
      vertex  -47.4717 25.2403 15
      vertex  -53.3447 7.16446 21
    endloop
  endfacet
  facet normal -0.809006 0.5878 0
    outer loop
      vertex  -47.4717 25.2403 21
      vertex  -36.2997 40.6167 15
      vertex  -47.4717 25.2403 15
    endloop
  endfacet
  facet normal -1 0 0
    outer loop
      vertex  -53.3447 7.16446 -21
      vertex  -53.3447 -11.8418 -15
      vertex  -53.3447 7.16446 -15
    endloop
  endfacet
  facet normal -0.951059 0.309009 0
    outer loop
      vertex  -53.3447 7.16446 -21
      vertex  -53.3447 7.16446 -15
      vertex  -47.4717 25.2403 -21
    endloop
  endfacet
  facet normal 0 1 0
    outer loop
      vertex  -2.84776 57.6614 21
      vertex  16.1583 57.6614 15
      vertex  -2.84776 57.6614 15
    endloop
  endfacet
  facet normal -0.309017 0.951056 0
    outer loop
      vertex  -2.84776 57.6614 21
      vertex  -2.84776 57.6614 15
      vertex  -20.9237 51.7881 21
    endloop
  endfacet
  facet normal -0.809006 0.5878 0
    outer loop
      vertex  -36.2997 40.6167 21
      vertex  -36.2997 40.6167 15
      vertex  -47.4717 25.2403 21
    endloop
  endfacet
  facet normal -0.58779 0.809013 0
    outer loop
      vertex  -36.2997 40.6167 21
      vertex  -20.9237 51.7881 15
      vertex  -36.2997 40.6167 15
    endloop
  endfacet
  facet normal 0.309017 0.951056 -0
    outer loop
      vertex  16.1583 57.6614 -21
      vertex  16.1583 57.6614 -15
      vertex  34.2343 51.7881 -21
    endloop
  endfacet
  facet normal 0 1 -0
    outer loop
      vertex  16.1583 57.6614 -21
      vertex  -2.84776 57.6614 -15
      vertex  16.1583 57.6614 -15
    endloop
  endfacet
  facet normal -0.309017 0.951056 0
    outer loop
      vertex  -20.9237 51.7881 21
      vertex  -2.84776 57.6614 15
      vertex  -20.9237 51.7881 15
    endloop
  endfacet
  facet normal -0.58779 0.809013 0
    outer loop
      vertex  -20.9237 51.7881 21
      vertex  -20.9237 51.7881 15
      vertex  -36.2997 40.6167 21
    endloop
  endfacet
  facet normal -0.951059 0.309009 0
    outer loop
      vertex  -47.4717 25.2403 -21
      vertex  -53.3447 7.16446 -15
      vertex  -47.4717 25.2403 -15
    endloop
  endfacet
  facet normal -0.809006 0.5878 0
    outer loop
      vertex  -47.4717 25.2403 -21
      vertex  -47.4717 25.2403 -15
      vertex  -36.2997 40.6167 -21
    endloop
  endfacet
  facet normal 0 1 0
    outer loop
      vertex  -2.84776 57.6614 -21
      vertex  -2.84776 57.6614 -15
      vertex  16.1583 57.6614 -21
    endloop
  endfacet
  facet normal -0.309017 0.951056 0
    outer loop
      vertex  -2.84776 57.6614 -21
      vertex  -20.9237 51.7881 -15
      vertex  -2.84776 57.6614 -15
    endloop
  endfacet
  facet normal -0.309017 0.951056 0
    outer loop
      vertex  -20.9237 51.7881 -21
      vertex  -20.9237 51.7881 -15
      vertex  -2.84776 57.6614 -21
    endloop
  endfacet
  facet normal -0.58779 0.809013 0
    outer loop
      vertex  -20.9237 51.7881 -21
      vertex  -36.2997 40.6167 -15
      vertex  -20.9237 51.7881 -15
    endloop
  endfacet
  facet normal -0.58779 0.809013 0
    outer loop
      vertex  -36.2997 40.6167 -21
      vertex  -36.2997 40.6167 -15
      vertex  -20.9237 51.7881 -21
    endloop
  endfacet
  facet normal -0.809006 0.5878 0
    outer loop
      vertex  -36.2997 40.6167 -21
      vertex  -47.4717 25.2403 -15
      vertex  -36.2997 40.6167 -15
    endloop
  endfacet
  facet normal 0 0 -1
    outer loop
      vertex  -22.3447 -55.4331 17
      vertex  -40.6267 -39.3386 17
      vertex  -22.3447 -39.3386 17
    endloop
  endfacet
  facet normal 0 0 -1
    outer loop
      vertex  -36.2997 -45.294 17
      vertex  -40.6267 -39.3386 17
      vertex  -22.3447 -55.4331 17
    endloop
  endfacet
  facet normal 0 -0.866028 0.499996
    outer loop
      vertex  -22.3447 -42.4519 -11
      vertex  -22.3447 -43.8952 -13.5
      vertex  -17.3447 -42.4519 -11
    endloop
  endfacet
  facet normal 0 -0.866028 0.499996
    outer loop
      vertex  -17.3447 -42.4519 -11
      vertex  -22.3447 -43.8952 -13.5
      vertex  -17.3447 -43.8952 -13.5
    endloop
  endfacet
  facet normal -1 0 -0
    outer loop
      vertex  -17.3447 -46.7821 13.5
      vertex  -17.3447 -43.8952 13.5
      vertex  -17.3447 -48.2254 11
    endloop
  endfacet
  facet normal -1 0 0
    outer loop
      vertex  -17.3447 -48.2254 11
      vertex  -17.3447 -43.8952 13.5
      vertex  -17.3447 -42.4519 11
    endloop
  endfacet
  facet normal -1 0 0
    outer loop
      vertex  -17.3447 -48.2254 11
      vertex  -17.3447 -42.4519 11
      vertex  -17.3447 -46.7821 8.5
    endloop
  endfacet
  facet normal -1 0 0
    outer loop
      vertex  -17.3447 -46.7821 8.5
      vertex  -17.3447 -42.4519 11
      vertex  -17.3447 -43.8952 8.5
    endloop
  endfacet
  facet normal 0 -0.866028 0.499996
    outer loop
      vertex  -22.3447 -42.4519 11
      vertex  -22.3447 -43.8952 8.5
      vertex  -17.3447 -42.4519 11
    endloop
  endfacet
  facet normal 0 -0.866028 0.499996
    outer loop
      vertex  -17.3447 -42.4519 11
      vertex  -22.3447 -43.8952 8.5
      vertex  -17.3447 -43.8952 8.5
    endloop
  endfacet
  facet normal -1 -0 0
    outer loop
      vertex  -17.3447 -42.4519 -11
      vertex  -17.3447 -43.8952 -13.5
      vertex  -17.3447 -43.8952 -8.5
    endloop
  endfacet
  facet normal -1 0 -0
    outer loop
      vertex  -17.3447 -43.8952 -8.5
      vertex  -17.3447 -43.8952 -13.5
      vertex  -17.3447 -46.7821 -13.5
    endloop
  endfacet
  facet normal -1 -0 0
    outer loop
      vertex  -17.3447 -43.8952 -8.5
      vertex  -17.3447 -46.7821 -13.5
      vertex  -17.3447 -46.7821 -8.5
    endloop
  endfacet
  facet normal -1 0 -0
    outer loop
      vertex  -17.3447 -46.7821 -8.5
      vertex  -17.3447 -46.7821 -13.5
      vertex  -17.3447 -48.2254 -11
    endloop
  endfacet
  facet normal -0 0 1
    outer loop
      vertex  -22.3447 -43.8952 -13.5
      vertex  -22.3447 -46.7821 -13.5
      vertex  -17.3447 -43.8952 -13.5
    endloop
  endfacet
  facet normal 0 0 1
    outer loop
      vertex  -17.3447 -43.8952 -13.5
      vertex  -22.3447 -46.7821 -13.5
      vertex  -17.3447 -46.7821 -13.5
    endloop
  endfacet
  facet normal 0 -0.866028 -0.499996
    outer loop
      vertex  -22.3447 -43.8952 -8.5
      vertex  -22.3447 -42.4519 -11
      vertex  -17.3447 -43.8952 -8.5
    endloop
  endfacet
  facet normal 0 -0.866028 -0.499996
    outer loop
      vertex  -17.3447 -43.8952 -8.5
      vertex  -22.3447 -42.4519 -11
      vertex  -17.3447 -42.4519 -11
    endloop
  endfacet
  facet normal -0 0 1
    outer loop
      vertex  -22.3447 -43.8952 8.5
      vertex  -22.3447 -46.7821 8.5
      vertex  -17.3447 -43.8952 8.5
    endloop
  endfacet
  facet normal 0 0 1
    outer loop
      vertex  -17.3447 -43.8952 8.5
      vertex  -22.3447 -46.7821 8.5
      vertex  -17.3447 -46.7821 8.5
    endloop
  endfacet
  facet normal 0 -0.866028 -0.499996
    outer loop
      vertex  -22.3447 -43.8952 13.5
      vertex  -22.3447 -42.4519 11
      vertex  -17.3447 -43.8952 13.5
    endloop
  endfacet
  facet normal 0 -0.866028 -0.499996
    outer loop
      vertex  -17.3447 -43.8952 13.5
      vertex  -22.3447 -42.4519 11
      vertex  -17.3447 -42.4519 11
    endloop
  endfacet
  facet normal -0 0.866028 0.499996
    outer loop
      vertex  -22.3447 -46.7821 -13.5
      vertex  -22.3447 -48.2254 -11
      vertex  -17.3447 -46.7821 -13.5
    endloop
  endfacet
  facet normal 0 0.866028 0.499996
    outer loop
      vertex  -17.3447 -46.7821 -13.5
      vertex  -22.3447 -48.2254 -11
      vertex  -17.3447 -48.2254 -11
    endloop
  endfacet
  facet normal 0 0 -1
    outer loop
      vertex  -22.3447 -46.7821 -8.5
      vertex  -22.3447 -43.8952 -8.5
      vertex  -17.3447 -46.7821 -8.5
    endloop
  endfacet
  facet normal 0 0 -1
    outer loop
      vertex  -17.3447 -46.7821 -8.5
      vertex  -22.3447 -43.8952 -8.5
      vertex  -17.3447 -43.8952 -8.5
    endloop
  endfacet
  facet normal -0 0.866028 0.499996
    outer loop
      vertex  -22.3447 -46.7821 8.5
      vertex  -22.3447 -48.2254 11
      vertex  -17.3447 -46.7821 8.5
    endloop
  endfacet
  facet normal 0 0.866028 0.499996
    outer loop
      vertex  -17.3447 -46.7821 8.5
      vertex  -22.3447 -48.2254 11
      vertex  -17.3447 -48.2254 11
    endloop
  endfacet
  facet normal 0 0.866028 -0.499996
    outer loop
      vertex  -22.3447 -48.2254 11
      vertex  -22.3447 -46.7821 13.5
      vertex  -17.3447 -48.2254 11
    endloop
  endfacet
  facet normal 0 0.866028 -0.499996
    outer loop
      vertex  -17.3447 -48.2254 11
      vertex  -22.3447 -46.7821 13.5
      vertex  -17.3447 -46.7821 13.5
    endloop
  endfacet
  facet normal 0 0.866028 -0.499996
    outer loop
      vertex  -22.3447 -48.2254 -11
      vertex  -22.3447 -46.7821 -8.5
      vertex  -17.3447 -48.2254 -11
    endloop
  endfacet
  facet normal 0 0.866028 -0.499996
    outer loop
      vertex  -17.3447 -48.2254 -11
      vertex  -22.3447 -46.7821 -8.5
      vertex  -17.3447 -46.7821 -8.5
    endloop
  endfacet
  facet normal 0 0 -1
    outer loop
      vertex  -22.3447 -46.7821 13.5
      vertex  -22.3447 -43.8952 13.5
      vertex  -17.3447 -46.7821 13.5
    endloop
  endfacet
  facet normal 0 0 -1
    outer loop
      vertex  -17.3447 -46.7821 13.5
      vertex  -22.3447 -43.8952 13.5
      vertex  -17.3447 -43.8952 13.5
    endloop
  endfacet
  facet normal 0 -1 0
    outer loop
      vertex  -48.3447 -17.3386 -15
      vertex  -37.8897 -17.3386 -15
      vertex  -48.3447 -17.3386 15
    endloop
  endfacet
  facet normal 0 -1 0
    outer loop
      vertex  -48.3447 -17.3386 15
      vertex  -37.8897 -17.3386 -15
      vertex  -37.8897 -17.3386 15
    endloop
  endfacet
  facet normal -0 -0 -1
    outer loop
      vertex  34.2343 51.7881 -21
      vertex  49.6103 40.6167 -21
      vertex  16.1583 57.6614 -21
    endloop
  endfacet
  facet normal 0 -0 -1
    outer loop
      vertex  16.1583 57.6614 -21
      vertex  49.6103 40.6167 -21
      vertex  -36.2997 -45.294 -21
    endloop
  endfacet
  facet normal 0 0 -1
    outer loop
      vertex  -2.84776 -62.3386 -21
      vertex  -36.2997 -45.294 -21
      vertex  49.6103 40.6167 -21
    endloop
  endfacet
  facet normal -0 0 -1
    outer loop
      vertex  16.1583 57.6614 -21
      vertex  -36.2997 -45.294 -21
      vertex  -2.84776 57.6614 -21
    endloop
  endfacet
  facet normal 0 0 -1
    outer loop
      vertex  -20.9237 -56.4654 -21
      vertex  -36.2997 -45.294 -21
      vertex  -2.84776 -62.3386 -21
    endloop
  endfacet
  facet normal 0 0 -1
    outer loop
      vertex  -2.84776 -62.3386 -21
      vertex  49.6103 40.6167 -21
      vertex  16.1583 -62.3386 -21
    endloop
  endfacet
  facet normal 0 0 -1
    outer loop
      vertex  -2.84776 57.6614 -21
      vertex  -36.2997 -45.294 -21
      vertex  -20.9237 51.7881 -21
    endloop
  endfacet
  facet normal 0 0 -1
    outer loop
      vertex  16.1583 -62.3386 -21
      vertex  49.6103 40.6167 -21
      vertex  34.2343 -56.4654 -21
    endloop
  endfacet
  facet normal 0 0 -1
    outer loop
      vertex  -36.2997 -45.294 -21
      vertex  -36.2997 40.6167 -21
      vertex  -20.9237 51.7881 -21
    endloop
  endfacet
  facet normal -0 0 -1
    outer loop
      vertex  60.7822 -29.9176 -21
      vertex  34.2343 -56.4654 -21
      vertex  49.6103 40.6167 -21
    endloop
  endfacet
  facet normal 0 0 -1
    outer loop
      vertex  -53.3447 7.16446 -21
      vertex  -36.2997 40.6167 -21
      vertex  -36.2997 -45.294 -21
    endloop
  endfacet
  facet normal -0 0 -1
    outer loop
      vertex  49.6103 -45.294 -21
      vertex  34.2343 -56.4654 -21
      vertex  60.7822 -29.9176 -21
    endloop
  endfacet
  facet normal 0 0 -1
    outer loop
      vertex  60.7822 -29.9176 -21
      vertex  49.6103 40.6167 -21
      vertex  66.6553 -11.8418 -21
    endloop
  endfacet
  facet normal 0 -0 -1
    outer loop
      vertex  -47.4717 25.2403 -21
      vertex  -36.2997 40.6167 -21
      vertex  -53.3447 7.16446 -21
    endloop
  endfacet
  facet normal 0 0 -1
    outer loop
      vertex  -53.3447 7.16446 -21
      vertex  -36.2997 -45.294 -21
      vertex  -53.3447 -11.8418 -21
    endloop
  endfacet
  facet normal 0 0 -1
    outer loop
      vertex  66.6553 -11.8418 -21
      vertex  49.6103 40.6167 -21
      vertex  66.6553 7.16446 -21
    endloop
  endfacet
  facet normal 0 0 -1
    outer loop
      vertex  -53.3447 -11.8418 -21
      vertex  -36.2997 -45.294 -21
      vertex  -47.4717 -29.9176 -21
    endloop
  endfacet
  facet normal 0 0 -1
    outer loop
      vertex  49.6103 40.6167 -21
      vertex  60.7822 25.2403 -21
      vertex  66.6553 7.16446 -21
    endloop
  endfacet
  facet normal 0 0 1
    outer loop
      vertex  -20.9237 51.7881 21
      vertex  -36.2997 40.6167 21
      vertex  49.6103 40.6167 21
    endloop
  endfacet
  facet normal 0 0 1
    outer loop
      vertex  49.6103 40.6167 21
      vertex  -36.2997 40.6167 21
      vertex  -53.3447 7.16446 21
    endloop
  endfacet
  facet normal -0 0 1
    outer loop
      vertex  -20.9237 51.7881 21
      vertex  49.6103 40.6167 21
      vertex  -2.84776 57.6614 21
    endloop
  endfacet
  facet normal 0 0 1
    outer loop
      vertex  -36.2997 40.6167 21
      vertex  -47.4717 25.2403 21
      vertex  -53.3447 7.16446 21
    endloop
  endfacet
  facet normal 0 0 1
    outer loop
      vertex  49.6103 40.6167 21
      vertex  -53.3447 7.16446 21
      vertex  60.7822 25.2403 21
    endloop
  endfacet
  facet normal 0 0 1
    outer loop
      vertex  -2.84776 57.6614 21
      vertex  49.6103 40.6167 21
      vertex  34.2343 51.7881 21
    endloop
  endfacet
  facet normal 0 0 1
    outer loop
      vertex  60.7822 25.2403 21
      vertex  -53.3447 7.16446 21
      vertex  66.6553 -11.8418 21
    endloop
  endfacet
  facet normal -0 0 1
    outer loop
      vertex  -2.84776 57.6614 21
      vertex  34.2343 51.7881 21
      vertex  16.1583 57.6614 21
    endloop
  endfacet
  facet normal 0 0 1
    outer loop
      vertex  -53.3447 7.16446 21
      vertex  -47.4717 -29.9176 21
      vertex  66.6553 -11.8418 21
    endloop
  endfacet
  facet normal 0 0 1
    outer loop
      vertex  60.7822 25.2403 21
      vertex  66.6553 -11.8418 21
      vertex  66.6553 7.16446 21
    endloop
  endfacet
  facet normal -0 0 1
    outer loop
      vertex  -53.3447 -11.8418 21
      vertex  -47.4717 -29.9176 21
      vertex  -53.3447 7.16446 21
    endloop
  endfacet
  facet normal -0 0 1
    outer loop
      vertex  -47.4717 -29.9176 21
      vertex  -36.2997 -45.294 21
      vertex  66.6553 -11.8418 21
    endloop
  endfacet
  facet normal 0 0 1
    outer loop
      vertex  66.6553 -11.8418 21
      vertex  -36.2997 -45.294 21
      vertex  -20.9237 -56.4654 21
    endloop
  endfacet
  facet normal 0 0 1
    outer loop
      vertex  66.6553 -11.8418 21
      vertex  -20.9237 -56.4654 21
      vertex  -2.84776 -62.3386 21
    endloop
  endfacet
  facet normal 0 -0 1
    outer loop
      vertex  16.1583 -62.3386 21
      vertex  66.6553 -11.8418 21
      vertex  -2.84776 -62.3386 21
    endloop
  endfacet
  facet normal 0 -0 1
    outer loop
      vertex  34.2343 -56.4654 21
      vertex  66.6553 -11.8418 21
      vertex  16.1583 -62.3386 21
    endloop
  endfacet
  facet normal 0 0 1
    outer loop
      vertex  34.2343 -56.4654 21
      vertex  60.7822 -29.9176 21
      vertex  66.6553 -11.8418 21
    endloop
  endfacet
  facet normal 0 -0 1
    outer loop
      vertex  49.6103 -45.294 21
      vertex  60.7822 -29.9176 21
      vertex  34.2343 -56.4654 21
    endloop
  endfacet
  facet normal 0.656314 0.00619841 0.754462
    outer loop
      vertex  -6.84165 -61.0409 -11.5279
      vertex  -4.29173 -61.8695 -13.7393
      vertex  -4.41172 -32.3386 -13.8775
    endloop
  endfacet
  facet normal 0.656392 0.00619841 0.754395
    outer loop
      vertex  -4.41172 -32.3386 -13.8775
      vertex  -4.29173 -61.8695 -13.7393
      vertex  -2.84776 -62.3386 -14.9918
    endloop
  endfacet
  facet normal 0.845831 -0.0279988 0.532715
    outer loop
      vertex  -6.84165 -61.0409 -11.5279
      vertex  -4.41172 -32.3386 -13.8775
      vertex  -7.85471 -60.7116 -9.90206
    endloop
  endfacet
  facet normal 0.5 -0.00610021 0.866004
    outer loop
      vertex  -4.41172 -32.3386 -13.8775
      vertex  -2.84776 -62.3386 -14.9918
      vertex  0.17031 -32.3386 -16.523
    endloop
  endfacet
  facet normal 0.733018 0.00635269 0.68018
    outer loop
      vertex  -7.85471 -60.7116 -9.90206
      vertex  -4.41172 -32.3386 -13.8775
      vertex  -8.01072 -32.3386 -9.99893
    endloop
  endfacet
  facet normal 0.452446 0 0.891792
    outer loop
      vertex  0.17031 -32.3386 -16.523
      vertex  -2.84776 -62.3386 -14.9918
      vertex  0.17031 -62.3386 -16.523
    endloop
  endfacet
  facet normal 0.849109 0.00647203 0.528177
    outer loop
      vertex  -7.85471 -60.7116 -9.90206
      vertex  -8.01072 -32.3386 -9.99893
      vertex  -9.63865 -60.1322 -7.04127
    endloop
  endfacet
  facet normal 0.222537 0 0.974924
    outer loop
      vertex  0.17031 -32.3386 -16.523
      vertex  0.17031 -62.3386 -16.523
      vertex  5.32827 -32.3386 -17.7004
    endloop
  endfacet
  facet normal 0.965832 -0.0291663 0.257524
    outer loop
      vertex  -9.63865 -60.1322 -7.04127
      vertex  -8.01072 -32.3386 -9.99893
      vertex  -10.1288 -59.9729 -5.18507
    endloop
  endfacet
  facet normal 0.222537 0 0.974924
    outer loop
      vertex  5.32827 -32.3386 -17.7004
      vertex  0.17031 -62.3386 -16.523
      vertex  5.32827 -62.3386 -17.7004
    endloop
  endfacet
  facet normal 0.900997 0.00650618 0.433777
    outer loop
      vertex  -8.01072 -32.3386 -9.99893
      vertex  -10.3058 -32.3386 -5.2319
      vertex  -10.1288 -59.9729 -5.18507
    endloop
  endfacet
  facet normal -0.07472 0 0.997205
    outer loop
      vertex  5.32827 -32.3386 -17.7004
      vertex  5.32827 -62.3386 -17.7004
      vertex  10.6052 -32.3386 -17.305
    endloop
  endfacet
  facet normal 0.966874 0.00662544 0.255167
    outer loop
      vertex  -10.3058 -32.3386 -5.2319
      vertex  -10.9897 -59.6933 -1.92999
      vertex  -10.1288 -59.9729 -5.18507
    endloop
  endfacet
  facet normal -0.07472 0 0.997205
    outer loop
      vertex  10.6052 -32.3386 -17.305
      vertex  5.32827 -62.3386 -17.7004
      vertex  10.6052 -62.3386 -17.305
    endloop
  endfacet
  facet normal 0.998715 -0.0299099 -0.0409135
    outer loop
      vertex  -10.3058 -32.3386 -5.2319
      vertex  -10.9117 -59.7185 -0.00742986
      vertex  -10.9897 -59.6933 -1.92999
    endloop
  endfacet
  facet normal -0.365354 0 0.930869
    outer loop
      vertex  10.6052 -32.3386 -17.305
      vertex  10.6052 -62.3386 -17.305
      vertex  15.5303 -32.3386 -15.372
    endloop
  endfacet
  facet normal 0.988799 0.00656782 0.149105
    outer loop
      vertex  -11.0947 -32.3386 2.92375e-15
      vertex  -10.9117 -59.7185 -0.00742986
      vertex  -10.3058 -32.3386 -5.2319
    endloop
  endfacet
  facet normal -0.365354 0 0.930869
    outer loop
      vertex  15.5303 -32.3386 -15.372
      vertex  10.6052 -62.3386 -17.305
      vertex  15.5303 -62.3386 -15.372
    endloop
  endfacet
  facet normal 0.999152 0.00668849 -0.0406407
    outer loop
      vertex  -11.0947 -32.3386 2.92375e-15
      vertex  -10.7748 -59.7628 3.35251
      vertex  -10.9117 -59.7185 -0.00742986
    endloop
  endfacet
  facet normal -0.517807 0 0.855498
    outer loop
      vertex  15.5303 -32.3386 -15.372
      vertex  15.5303 -62.3386 -15.372
      vertex  16.1583 -62.3386 -14.9918
    endloop
  endfacet
  facet normal 0.988799 -0.00669168 -0.149105
    outer loop
      vertex  -10.3058 -32.3386 5.2319
      vertex  -10.7748 -59.7628 3.35251
      vertex  -11.0947 -32.3386 2.92375e-15
    endloop
  endfacet
  facet normal -0.623437 -0.00314436 0.781867
    outer loop
      vertex  19.1743 -61.3587 -12.583
      vertex  15.5303 -32.3386 -15.372
      vertex  16.1583 -62.3386 -14.9918
    endloop
  endfacet
  facet normal 0.943154 0.00664266 -0.33229
    outer loop
      vertex  -10.3058 -32.3386 5.2319
      vertex  -10.1327 -59.9715 5.17081
      vertex  -10.7748 -59.7628 3.35251
    endloop
  endfacet
  facet normal -0.623459 -0.00314889 0.781849
    outer loop
      vertex  19.1743 -61.3587 -12.583
      vertex  19.6673 -32.3386 -12.0731
      vertex  15.5303 -32.3386 -15.372
    endloop
  endfacet
  facet normal 0.943187 0.00664266 -0.332197
    outer loop
      vertex  -10.3058 -32.3386 5.2319
      vertex  -9.01475 -60.3349 8.33759
      vertex  -10.1327 -59.9715 5.17081
    endloop
  endfacet
  facet normal -0.803428 0.00318438 0.595393
    outer loop
      vertex  19.5933 -61.2226 -12.0184
      vertex  19.6673 -32.3386 -12.0731
      vertex  19.1743 -61.3587 -12.583
    endloop
  endfacet
  facet normal 0.900996 -0.00657145 -0.433777
    outer loop
      vertex  -8.01072 -32.3386 9.99893
      vertex  -9.01475 -60.3349 8.33759
      vertex  -10.3058 -32.3386 5.2319
    endloop
  endfacet
  facet normal -0.803344 0.00318439 0.595507
    outer loop
      vertex  22.3253 -60.3349 -8.33759
      vertex  19.6673 -32.3386 -12.0731
      vertex  19.5933 -61.2226 -12.0184
    endloop
  endfacet
  facet normal 0.803665 0.00648916 -0.595047
    outer loop
      vertex  -8.01072 -32.3386 9.99893
      vertex  -7.86265 -60.7091 9.88953
      vertex  -9.01475 -60.3349 8.33759
    endloop
  endfacet
  facet normal -0.826283 -0.00329804 0.563246
    outer loop
      vertex  22.3253 -60.3349 -8.33759
      vertex  22.6472 -32.3386 -7.70144
      vertex  19.6673 -32.3386 -12.0731
    endloop
  endfacet
  facet normal 0.803757 0.00648916 -0.594923
    outer loop
      vertex  -8.01072 -32.3386 9.99893
      vertex  -5.86375 -61.3587 12.583
      vertex  -7.86265 -60.7091 9.88953
    endloop
  endfacet
  facet normal -0.942833 0.00326825 0.33325
    outer loop
      vertex  22.5613 -60.2583 -7.67076
      vertex  22.6472 -32.3386 -7.70144
      vertex  22.3253 -60.3349 -8.33759
    endloop
  endfacet
  facet normal 0.733018 -0.00633592 -0.68018
    outer loop
      vertex  -4.41172 -32.3386 13.8775
      vertex  -5.86375 -61.3587 12.583
      vertex  -8.01072 -32.3386 9.99893
    endloop
  endfacet
  facet normal -0.955541 0.00326516 0.294841
    outer loop
      vertex  22.5613 -60.2583 -7.67076
      vertex  24.2073 -32.3386 -2.6455
      vertex  22.6472 -32.3386 -7.70144
    endloop
  endfacet
  facet normal 0.624714 0.00357348 -0.780845
    outer loop
      vertex  -4.41172 -32.3386 13.8775
      vertex  -4.34568 -61.8518 13.7953
      vertex  -5.86375 -61.3587 12.583
    endloop
  endfacet
  facet normal -0.942757 -0.00443796 0.333452
    outer loop
      vertex  24.0863 -59.7628 -3.35251
      vertex  24.2073 -32.3386 -2.6455
      vertex  22.5613 -60.2583 -7.67076
    endloop
  endfacet
  facet normal 0.624824 0.00357348 -0.780758
    outer loop
      vertex  -4.41172 -32.3386 13.8775
      vertex  -2.84776 -62.3386 14.9918
      vertex  -4.34568 -61.8518 13.7953
    endloop
  endfacet
  facet normal -0.999224 0.00339569 0.039255
    outer loop
      vertex  24.0863 -59.7628 -3.35251
      vertex  24.1143 -59.7536 -2.64175
      vertex  24.2073 -32.3386 -2.6455
    endloop
  endfacet
  facet normal 0.5 -0.00610021 -0.866004
    outer loop
      vertex  0.17031 -32.3386 16.523
      vertex  -2.84776 -62.3386 14.9918
      vertex  -4.41172 -32.3386 13.8775
    endloop
  endfacet
  facet normal -0.999994 0.00339294 0
    outer loop
      vertex  24.2073 -32.3386 -2.6455
      vertex  24.1143 -59.7536 -2.64175
      vertex  24.2073 -32.3386 2.6455
    endloop
  endfacet
  facet normal 0.452446 0 -0.891792
    outer loop
      vertex  0.17031 -32.3386 16.523
      vertex  0.17031 -62.3386 16.523
      vertex  -2.84776 -62.3386 14.9918
    endloop
  endfacet
  facet normal -0.999161 -0.00446262 0.0407171
    outer loop
      vertex  24.1143 -59.7536 -2.64175
      vertex  24.3003 -59.6933 1.92999
      vertex  24.2073 -32.3386 2.6455
    endloop
  endfacet
  facet normal 0.222537 0 -0.974924
    outer loop
      vertex  0.17031 -32.3386 16.523
      vertex  5.32827 -62.3386 17.7004
      vertex  0.17031 -62.3386 16.523
    endloop
  endfacet
  facet normal -0.966819 0.00339394 -0.25544
    outer loop
      vertex  24.2073 -32.3386 2.6455
      vertex  24.3003 -59.6933 1.92999
      vertex  24.1173 -59.7527 2.62177
    endloop
  endfacet
  facet normal 0.222537 0 -0.974924
    outer loop
      vertex  5.32827 -32.3386 17.7004
      vertex  5.32827 -62.3386 17.7004
      vertex  0.17031 -32.3386 16.523
    endloop
  endfacet
  facet normal -0.95554 0.00339103 -0.294841
    outer loop
      vertex  24.2073 -32.3386 2.6455
      vertex  24.1173 -59.7527 2.62177
      vertex  22.6472 -32.3386 7.70144
    endloop
  endfacet
  facet normal -0.07472 -0 -0.997205
    outer loop
      vertex  5.32827 -32.3386 17.7004
      vertex  10.6052 -62.3386 17.305
      vertex  5.32827 -62.3386 17.7004
    endloop
  endfacet
  facet normal -0.966698 -0.00442614 -0.255882
    outer loop
      vertex  22.6472 -32.3386 7.70144
      vertex  24.1173 -59.7527 2.62177
      vertex  22.9492 -60.1322 7.04127
    endloop
  endfacet
  facet normal -0.07472 -0 -0.997205
    outer loop
      vertex  10.6052 -32.3386 17.305
      vertex  10.6052 -62.3386 17.305
      vertex  5.32827 -32.3386 17.7004
    endloop
  endfacet
  facet normal -0.848797 0.00333529 -0.528708
    outer loop
      vertex  22.6472 -32.3386 7.70144
      vertex  22.9492 -60.1322 7.04127
      vertex  22.5683 -60.2559 7.65212
    endloop
  endfacet
  facet normal -0.365354 -0 -0.930869
    outer loop
      vertex  10.6052 -32.3386 17.305
      vertex  15.5303 -62.3386 15.372
      vertex  10.6052 -62.3386 17.305
    endloop
  endfacet
  facet normal -0.826282 0.00333261 -0.563246
    outer loop
      vertex  22.6472 -32.3386 7.70144
      vertex  22.5683 -60.2559 7.65212
      vertex  19.6673 -32.3386 12.0731
    endloop
  endfacet
  facet normal -0.365354 -0 -0.930869
    outer loop
      vertex  15.5303 -32.3386 15.372
      vertex  15.5303 -62.3386 15.372
      vertex  10.6052 -32.3386 17.305
    endloop
  endfacet
  facet normal -0.848225 -0.0042726 -0.529619
    outer loop
      vertex  19.6673 -32.3386 12.0731
      vertex  22.5683 -60.2559 7.65212
      vertex  20.1522 -61.0409 11.5279
    endloop
  endfacet
  facet normal -0.517807 -0 -0.855498
    outer loop
      vertex  15.5303 -32.3386 15.372
      vertex  16.1583 -62.3386 14.9918
      vertex  15.5303 -62.3386 15.372
    endloop
  endfacet
  facet normal -0.655812 0.00325807 -0.754917
    outer loop
      vertex  20.1522 -61.0409 11.5279
      vertex  19.6052 -61.2187 12.0023
      vertex  19.6673 -32.3386 12.0731
    endloop
  endfacet
  facet normal -0.623459 -0.00314506 -0.781849
    outer loop
      vertex  19.6673 -32.3386 12.0731
      vertex  16.1583 -62.3386 14.9918
      vertex  15.5303 -32.3386 15.372
    endloop
  endfacet
  facet normal -0.655806 0.00325807 -0.754923
    outer loop
      vertex  19.6673 -32.3386 12.0731
      vertex  19.6052 -61.2187 12.0023
      vertex  16.1583 -62.3386 14.9918
    endloop
  endfacet
  facet normal -0 -1 -0
    outer loop
      vertex  24.2073 -32.3386 2.6455
      vertex  22.6472 -32.3386 7.70144
      vertex  24.2073 -32.3386 -2.6455
    endloop
  endfacet
  facet normal 0 -1 0
    outer loop
      vertex  24.2073 -32.3386 -2.6455
      vertex  22.6472 -32.3386 7.70144
      vertex  -4.41172 -32.3386 13.8775
    endloop
  endfacet
  facet normal 0 -1 0
    outer loop
      vertex  -4.41172 -32.3386 13.8775
      vertex  22.6472 -32.3386 7.70144
      vertex  19.6673 -32.3386 12.0731
    endloop
  endfacet
  facet normal -0 -1 0
    outer loop
      vertex  24.2073 -32.3386 -2.6455
      vertex  -4.41172 -32.3386 13.8775
      vertex  22.6472 -32.3386 -7.70144
    endloop
  endfacet
  facet normal 0 -1 -0
    outer loop
      vertex  15.5303 -32.3386 15.372
      vertex  -4.41172 -32.3386 13.8775
      vertex  19.6673 -32.3386 12.0731
    endloop
  endfacet
  facet normal -0 -1 0
    outer loop
      vertex  22.6472 -32.3386 -7.70144
      vertex  -4.41172 -32.3386 13.8775
      vertex  19.6673 -32.3386 -12.0731
    endloop
  endfacet
  facet normal 0 -1 -0
    outer loop
      vertex  10.6052 -32.3386 17.305
      vertex  -4.41172 -32.3386 13.8775
      vertex  15.5303 -32.3386 15.372
    endloop
  endfacet
  facet normal 0 -1 0
    outer loop
      vertex  -4.41172 -32.3386 13.8775
      vertex  15.5303 -32.3386 -15.372
      vertex  19.6673 -32.3386 -12.0731
    endloop
  endfacet
  facet normal 0 -1 0
    outer loop
      vertex  10.6052 -32.3386 17.305
      vertex  0.17031 -32.3386 16.523
      vertex  -4.41172 -32.3386 13.8775
    endloop
  endfacet
  facet normal 0 -1 0
    outer loop
      vertex  -4.41172 -32.3386 13.8775
      vertex  10.6052 -32.3386 -17.305
      vertex  15.5303 -32.3386 -15.372
    endloop
  endfacet
  facet normal 0 -1 -0
    outer loop
      vertex  5.32827 -32.3386 17.7004
      vertex  0.17031 -32.3386 16.523
      vertex  10.6052 -32.3386 17.305
    endloop
  endfacet
  facet normal 0 -1 0
    outer loop
      vertex  -4.41172 -32.3386 -13.8775
      vertex  10.6052 -32.3386 -17.305
      vertex  -4.41172 -32.3386 13.8775
    endloop
  endfacet
  facet normal 0 -1 0
    outer loop
      vertex  -4.41172 -32.3386 -13.8775
      vertex  5.32827 -32.3386 -17.7004
      vertex  10.6052 -32.3386 -17.305
    endloop
  endfacet
  facet normal 0 -1 0
    outer loop
      vertex  -10.3058 -32.3386 -5.2319
      vertex  -4.41172 -32.3386 -13.8775
      vertex  -4.41172 -32.3386 13.8775
    endloop
  endfacet
  facet normal 0 -1 0
    outer loop
      vertex  0.17031 -32.3386 -16.523
      vertex  5.32827 -32.3386 -17.7004
      vertex  -4.41172 -32.3386 -13.8775
    endloop
  endfacet
  facet normal 0 -1 0
    outer loop
      vertex  -8.01072 -32.3386 -9.99893
      vertex  -4.41172 -32.3386 -13.8775
      vertex  -10.3058 -32.3386 -5.2319
    endloop
  endfacet
  facet normal 0 -1 0
    outer loop
      vertex  -10.3058 -32.3386 -5.2319
      vertex  -4.41172 -32.3386 13.8775
      vertex  -11.0947 -32.3386 2.92375e-15
    endloop
  endfacet
  facet normal 0 -1 0
    outer loop
      vertex  -11.0947 -32.3386 2.92375e-15
      vertex  -4.41172 -32.3386 13.8775
      vertex  -10.3058 -32.3386 5.2319
    endloop
  endfacet
  facet normal 0 -1 0
    outer loop
      vertex  -4.41172 -32.3386 13.8775
      vertex  -8.01072 -32.3386 9.99893
      vertex  -10.3058 -32.3386 5.2319
    endloop
  endfacet
endsolid
