solid
  facet normal -0.587786 0 -0.809017
    outer loop
      vertex  -66.5007 -92.3387 -53.1509
      vertex  -66.5007 -72.3387 -53.1509
      vertex  -21.2878 -92.3387 -86
    endloop
  endfacet
  facet normal -0.587786 0 -0.809017
    outer loop
      vertex  -21.2878 -92.3387 -86
      vertex  -66.5007 -72.3387 -53.1509
      vertex  -21.2878 -72.3387 -86
    endloop
  endfacet
  facet normal -0.956305 -0 -0.292372
    outer loop
      vertex  -108.408 87.6613 83.9213
      vertex  -66.5007 65.1613 -53.1509
      vertex  -108.408 65.1613 83.9213
    endloop
  endfacet
  facet normal -0.956305 -0 -0.292372
    outer loop
      vertex  -66.5007 87.6613 -53.1509
      vertex  -66.5007 65.1613 -53.1509
      vertex  -108.408 87.6613 83.9213
    endloop
  endfacet
  facet normal -0.988456 0 0.151507
    outer loop
      vertex  -108.408 87.6613 83.9213
      vertex  -108.408 65.1613 83.9213
      vertex  -106.333 87.6613 97.4578
    endloop
  endfacet
  facet normal -0.988456 0 0.151507
    outer loop
      vertex  -106.333 87.6613 97.4578
      vertex  -108.408 65.1613 83.9213
      vertex  -106.333 65.1613 97.4578
    endloop
  endfacet
  facet normal -0.824833 0 0.565377
    outer loop
      vertex  -106.333 87.6613 97.4578
      vertex  -106.333 65.1613 97.4578
      vertex  -98.5904 87.6613 108.754
    endloop
  endfacet
  facet normal -0.824833 0 0.565377
    outer loop
      vertex  -98.5904 87.6613 108.754
      vertex  -106.333 65.1613 97.4578
      vertex  -98.5904 65.1613 108.754
    endloop
  endfacet
  facet normal -0.529919 0 0.848049
    outer loop
      vertex  -98.5904 65.1613 108.754
      vertex  -12.8447 65.1613 162.333
      vertex  -98.5904 87.6613 108.754
    endloop
  endfacet
  facet normal -0.529919 0 0.848049
    outer loop
      vertex  -98.5904 87.6613 108.754
      vertex  -12.8447 65.1613 162.333
      vertex  -12.8447 83.6613 162.333
    endloop
  endfacet
  facet normal -0.529919 -6.92099e-06 0.848048
    outer loop
      vertex  -98.5904 87.6613 108.754
      vertex  -12.8447 83.6613 162.333
      vertex  -8.8447 87.6613 164.833
    endloop
  endfacet
  facet normal -0.587786 -0 -0.809017
    outer loop
      vertex  -21.2878 87.6613 -86
      vertex  -21.2878 65.1613 -86
      vertex  -66.5007 87.6613 -53.1509
    endloop
  endfacet
  facet normal -0.587786 -0 -0.809017
    outer loop
      vertex  -66.5007 87.6613 -53.1509
      vertex  -21.2878 65.1613 -86
      vertex  -66.5007 65.1613 -53.1509
    endloop
  endfacet
  facet normal -0 -1 -0
    outer loop
      vertex  21.0891 -142.339 25
      vertex  -7.77845 -142.339 25
      vertex  35.5228 -142.339 0
    endloop
  endfacet
  facet normal 0 -1 0
    outer loop
      vertex  35.5228 -142.339 0
      vertex  -7.77845 -142.339 25
      vertex  -22.2122 -142.339 0
    endloop
  endfacet
  facet normal -0 -1 0
    outer loop
      vertex  35.5228 -142.339 0
      vertex  -22.2122 -142.339 0
      vertex  21.0891 -142.339 -25
    endloop
  endfacet
  facet normal 0 -1 0
    outer loop
      vertex  21.0891 -142.339 -25
      vertex  -22.2122 -142.339 0
      vertex  -7.77845 -142.339 -25
    endloop
  endfacet
  facet normal -0.866025 0 0.5
    outer loop
      vertex  -7.77845 -142.339 25
      vertex  -7.77845 -92.3387 25
      vertex  -22.2122 -142.339 0
    endloop
  endfacet
  facet normal -0.866025 0 0.5
    outer loop
      vertex  -22.2122 -142.339 0
      vertex  -7.77845 -92.3387 25
      vertex  -22.2122 -92.3387 0
    endloop
  endfacet
  facet normal -1 -0 -0
    outer loop
      vertex  -16.8447 75.6613 507.544
      vertex  -16.8447 75.6613 450.456
      vertex  -16.8447 6.16135 510.773
    endloop
  endfacet
  facet normal -1 0 0
    outer loop
      vertex  -16.8447 6.16135 510.773
      vertex  -16.8447 75.6613 450.456
      vertex  -16.8447 6.16135 447.227
    endloop
  endfacet
  facet normal 0 -1 0
    outer loop
      vertex  -12.8447 6.16135 445.771
      vertex  -12.8447 6.16135 512.229
      vertex  -16.8447 6.16135 447.227
    endloop
  endfacet
  facet normal 0 -1 0
    outer loop
      vertex  -16.8447 6.16135 447.227
      vertex  -12.8447 6.16135 512.229
      vertex  -16.8447 6.16135 510.773
    endloop
  endfacet
  facet normal -0.341731 0.0436164 -0.938785
    outer loop
      vertex  -16.8447 75.6613 450.456
      vertex  -12.8447 75.6613 449
      vertex  -16.8447 6.16135 447.227
    endloop
  endfacet
  facet normal -0.341731 0.0436164 -0.938785
    outer loop
      vertex  -16.8447 6.16135 447.227
      vertex  -12.8447 75.6613 449
      vertex  -12.8447 6.16135 445.771
    endloop
  endfacet
  facet normal -0.341731 0.0436164 0.938785
    outer loop
      vertex  -12.8447 75.6613 509
      vertex  -16.8447 75.6613 507.544
      vertex  -12.8447 6.16135 512.229
    endloop
  endfacet
  facet normal -0.341731 0.0436164 0.938785
    outer loop
      vertex  -12.8447 6.16135 512.229
      vertex  -16.8447 75.6613 507.544
      vertex  -16.8447 6.16135 510.773
    endloop
  endfacet
  facet normal -0.707107 -0.707107 -0
    outer loop
      vertex  -12.8447 -88.3387 552.224
      vertex  -12.8447 -88.3387 162.333
      vertex  -8.8447 -92.3387 548.777
    endloop
  endfacet
  facet normal -0.707107 -0.707107 -0
    outer loop
      vertex  -8.8447 -92.3387 548.777
      vertex  -12.8447 -88.3387 162.333
      vertex  -8.8447 -92.3387 164.833
    endloop
  endfacet
  facet normal -1 0 0
    outer loop
      vertex  -12.8447 83.6613 162.333
      vertex  -12.8447 65.1613 162.333
      vertex  -12.8447 75.6613 449
    endloop
  endfacet
  facet normal -1 0 0
    outer loop
      vertex  -12.8447 75.6613 449
      vertex  -12.8447 65.1613 162.333
      vertex  -12.8447 -72.3387 162.333
    endloop
  endfacet
  facet normal -1 0 0
    outer loop
      vertex  -12.8447 83.6613 162.333
      vertex  -12.8447 75.6613 449
      vertex  -12.8447 83.6613 552.224
    endloop
  endfacet
  facet normal -1 0 0
    outer loop
      vertex  -12.8447 75.6613 449
      vertex  -12.8447 -72.3387 162.333
      vertex  -12.8447 6.16135 445.771
    endloop
  endfacet
  facet normal -1 0 0
    outer loop
      vertex  -12.8447 83.6613 552.224
      vertex  -12.8447 75.6613 449
      vertex  -12.8447 75.6613 509
    endloop
  endfacet
  facet normal -1 0 0
    outer loop
      vertex  -12.8447 6.16135 445.771
      vertex  -12.8447 -72.3387 162.333
      vertex  -12.8447 -88.3387 162.333
    endloop
  endfacet
  facet normal -1 -0 0
    outer loop
      vertex  -12.8447 83.6613 552.224
      vertex  -12.8447 75.6613 509
      vertex  -12.8447 68.1613 560.842
    endloop
  endfacet
  facet normal -1 -0 0
    outer loop
      vertex  -12.8447 6.16135 445.771
      vertex  -12.8447 -88.3387 162.333
      vertex  -12.8447 -88.3387 552.224
    endloop
  endfacet
  facet normal -1 0 -0
    outer loop
      vertex  -12.8447 68.1613 560.842
      vertex  -12.8447 75.6613 509
      vertex  -12.8447 6.16135 512.229
    endloop
  endfacet
  facet normal -1 0 -0
    outer loop
      vertex  -12.8447 -72.8387 560.842
      vertex  -12.8447 6.16135 445.771
      vertex  -12.8447 -88.3387 552.224
    endloop
  endfacet
  facet normal -1 -0 0
    outer loop
      vertex  -12.8447 68.1613 560.842
      vertex  -12.8447 6.16135 512.229
      vertex  -12.8447 68.1613 680.277
    endloop
  endfacet
  facet normal -1 0 0
    outer loop
      vertex  -12.8447 -72.8387 560.842
      vertex  -12.8447 6.16135 512.229
      vertex  -12.8447 6.16135 445.771
    endloop
  endfacet
  facet normal -1 -0 0
    outer loop
      vertex  -12.8447 68.1613 680.277
      vertex  -12.8447 6.16135 512.229
      vertex  -12.8447 -72.8387 680.277
    endloop
  endfacet
  facet normal -1 0 0
    outer loop
      vertex  -12.8447 -72.8387 680.277
      vertex  -12.8447 6.16135 512.229
      vertex  -12.8447 -72.8387 560.842
    endloop
  endfacet
  facet normal 0.25815 -0.46947 0.844367
    outer loop
      vertex  -12.8447 -88.3387 552.224
      vertex  108.163 -72.8387 523.846
      vertex  -12.8447 -72.8387 560.842
    endloop
  endfacet
  facet normal 0.25815 -0.469477 0.844364
    outer loop
      vertex  -12.8447 -88.3387 552.224
      vertex  112.336 -92.3387 511.728
      vertex  108.163 -72.8387 523.846
    endloop
  endfacet
  facet normal 0.258149 -0.469483 0.84436
    outer loop
      vertex  -8.8447 -92.3387 548.777
      vertex  112.336 -92.3387 511.728
      vertex  -12.8447 -88.3387 552.224
    endloop
  endfacet
  facet normal -0.529919 0 0.848048
    outer loop
      vertex  -12.8447 -72.3387 162.333
      vertex  -98.5904 -72.3387 108.754
      vertex  -12.8447 -88.3387 162.333
    endloop
  endfacet
  facet normal -0.529919 0 0.848048
    outer loop
      vertex  -12.8447 -88.3387 162.333
      vertex  -98.5904 -72.3387 108.754
      vertex  -98.5904 -92.3387 108.754
    endloop
  endfacet
  facet normal -0.824832 0 0.565377
    outer loop
      vertex  -98.5904 -92.3387 108.754
      vertex  -98.5904 -72.3387 108.754
      vertex  -106.333 -92.3387 97.4578
    endloop
  endfacet
  facet normal -0.529919 7.75007e-06 0.848048
    outer loop
      vertex  -12.8447 -88.3387 162.333
      vertex  -98.5904 -92.3387 108.754
      vertex  -8.8447 -92.3387 164.833
    endloop
  endfacet
  facet normal -0.824832 0 0.565377
    outer loop
      vertex  -106.333 -92.3387 97.4578
      vertex  -98.5904 -72.3387 108.754
      vertex  -106.333 -72.3387 97.4578
    endloop
  endfacet
  facet normal -0.988456 0 0.151507
    outer loop
      vertex  -106.333 -92.3387 97.4578
      vertex  -106.333 -72.3387 97.4578
      vertex  -108.408 -92.3387 83.9213
    endloop
  endfacet
  facet normal -0.988456 0 0.151507
    outer loop
      vertex  -108.408 -92.3387 83.9213
      vertex  -106.333 -72.3387 97.4578
      vertex  -108.408 -72.3387 83.9213
    endloop
  endfacet
  facet normal -0.956305 0 -0.292372
    outer loop
      vertex  -108.408 -92.3387 83.9213
      vertex  -108.408 -72.3387 83.9213
      vertex  -66.5007 -92.3387 -53.1509
    endloop
  endfacet
  facet normal -0.956305 0 -0.292372
    outer loop
      vertex  -66.5007 -92.3387 -53.1509
      vertex  -108.408 -72.3387 83.9213
      vertex  -66.5007 -72.3387 -53.1509
    endloop
  endfacet
  facet normal 0 1 0
    outer loop
      vertex  45.164 68.1613 706.81
      vertex  -12.8447 68.1613 560.842
      vertex  -12.8447 68.1613 680.277
    endloop
  endfacet
  facet normal 0 1 0
    outer loop
      vertex  108.163 68.1613 523.846
      vertex  -12.8447 68.1613 560.842
      vertex  45.164 68.1613 706.81
    endloop
  endfacet
  facet normal 0 1 0
    outer loop
      vertex  45.164 68.1613 706.81
      vertex  -12.8447 68.1613 680.277
      vertex  11.6553 68.1613 696.34
    endloop
  endfacet
  facet normal 0 1 0
    outer loop
      vertex  11.6553 68.1613 696.34
      vertex  -12.8447 68.1613 680.277
      vertex  6.65529 68.1613 695
    endloop
  endfacet
  facet normal 0 1 0
    outer loop
      vertex  11.6553 68.1613 696.34
      vertex  15.3155 68.1613 700
      vertex  45.164 68.1613 706.81
    endloop
  endfacet
  facet normal 0 1 0
    outer loop
      vertex  -12.8447 68.1613 680.277
      vertex  1.6553 68.1613 696.34
      vertex  6.65529 68.1613 695
    endloop
  endfacet
  facet normal 0 1 0
    outer loop
      vertex  45.164 68.1613 706.81
      vertex  15.3155 68.1613 700
      vertex  16.6553 68.1613 705
    endloop
  endfacet
  facet normal 0 1 0
    outer loop
      vertex  -12.8447 68.1613 680.277
      vertex  -2.00497 68.1613 700
      vertex  1.6553 68.1613 696.34
    endloop
  endfacet
  facet normal 0 1 0
    outer loop
      vertex  45.164 68.1613 706.81
      vertex  16.6553 68.1613 705
      vertex  40.3079 68.1613 715.345
    endloop
  endfacet
  facet normal -0 1 0
    outer loop
      vertex  -19.775 68.1613 688.072
      vertex  -2.00497 68.1613 700
      vertex  -12.8447 68.1613 680.277
    endloop
  endfacet
  facet normal 0 1 0
    outer loop
      vertex  40.3079 68.1613 715.345
      vertex  16.6553 68.1613 705
      vertex  15.3155 68.1613 710
    endloop
  endfacet
  facet normal -0 1 0
    outer loop
      vertex  -23.7123 68.1613 697.068
      vertex  -2.00497 68.1613 700
      vertex  -19.775 68.1613 688.072
    endloop
  endfacet
  facet normal 0 1 0
    outer loop
      vertex  15.3155 68.1613 710
      vertex  34.0435 68.1613 722.907
      vertex  40.3079 68.1613 715.345
    endloop
  endfacet
  facet normal 0 1 0
    outer loop
      vertex  -23.7123 68.1613 697.068
      vertex  -3.34471 68.1613 705
      vertex  -2.00497 68.1613 700
    endloop
  endfacet
  facet normal 0 1 0
    outer loop
      vertex  15.3155 68.1613 710
      vertex  26.561 68.1613 729.267
      vertex  34.0435 68.1613 722.907
    endloop
  endfacet
  facet normal 0 1 0
    outer loop
      vertex  -24.6771 68.1613 706.841
      vertex  -3.34471 68.1613 705
      vertex  -23.7123 68.1613 697.068
    endloop
  endfacet
  facet normal -0 1 0
    outer loop
      vertex  11.6553 68.1613 713.66
      vertex  26.561 68.1613 729.267
      vertex  15.3155 68.1613 710
    endloop
  endfacet
  facet normal 0 1 0
    outer loop
      vertex  -2.00497 68.1613 710
      vertex  -3.34471 68.1613 705
      vertex  -24.6771 68.1613 706.841
    endloop
  endfacet
  facet normal 0 1 0
    outer loop
      vertex  11.6553 68.1613 713.66
      vertex  18.0879 68.1613 734.23
      vertex  26.561 68.1613 729.267
    endloop
  endfacet
  facet normal 0 1 0
    outer loop
      vertex  -24.6771 68.1613 706.841
      vertex  -22.5749 68.1613 716.433
      vertex  -2.00497 68.1613 710
    endloop
  endfacet
  facet normal 0 1 0
    outer loop
      vertex  8.4958 68.1613 736.332
      vertex  18.0879 68.1613 734.23
      vertex  11.6553 68.1613 713.66
    endloop
  endfacet
  facet normal 0 1 0
    outer loop
      vertex  -2.00497 68.1613 710
      vertex  -22.5749 68.1613 716.433
      vertex  -17.6114 68.1613 724.906
    endloop
  endfacet
  facet normal -0 1 0
    outer loop
      vertex  6.65529 68.1613 715
      vertex  8.4958 68.1613 736.332
      vertex  11.6553 68.1613 713.66
    endloop
  endfacet
  facet normal 0 1 -0
    outer loop
      vertex  -2.00497 68.1613 710
      vertex  -17.6114 68.1613 724.906
      vertex  1.6553 68.1613 713.66
    endloop
  endfacet
  facet normal 0 1 -0
    outer loop
      vertex  6.65529 68.1613 715
      vertex  -1.27654 68.1613 735.368
      vertex  8.4958 68.1613 736.332
    endloop
  endfacet
  facet normal -0 1 0
    outer loop
      vertex  -17.6114 68.1613 724.906
      vertex  -10.2725 68.1613 731.43
      vertex  1.6553 68.1613 713.66
    endloop
  endfacet
  facet normal 0 1 -0
    outer loop
      vertex  1.6553 68.1613 713.66
      vertex  -1.27654 68.1613 735.368
      vertex  6.65529 68.1613 715
    endloop
  endfacet
  facet normal 0 1 0
    outer loop
      vertex  1.6553 68.1613 713.66
      vertex  -10.2725 68.1613 731.43
      vertex  -1.27654 68.1613 735.368
    endloop
  endfacet
  facet normal -0.747346 0 -0.664435
    outer loop
      vertex  -19.775 -72.8387 688.072
      vertex  -19.775 68.1613 688.072
      vertex  -12.8447 -72.8387 680.277
    endloop
  endfacet
  facet normal -0.916096 -0 -0.400958
    outer loop
      vertex  -19.775 68.1613 688.072
      vertex  -19.775 -72.8387 688.072
      vertex  -23.7123 68.1613 697.068
    endloop
  endfacet
  facet normal -0.747346 0 -0.664435
    outer loop
      vertex  -12.8447 -72.8387 680.277
      vertex  -19.775 68.1613 688.072
      vertex  -12.8447 68.1613 680.277
    endloop
  endfacet
  facet normal -0.916096 -0 -0.400958
    outer loop
      vertex  -23.7123 68.1613 697.068
      vertex  -19.775 -72.8387 688.072
      vertex  -23.7123 -72.8387 697.068
    endloop
  endfacet
  facet normal -0.995163 -0 -0.0982422
    outer loop
      vertex  -23.7123 68.1613 697.068
      vertex  -23.7123 -72.8387 697.068
      vertex  -24.6771 68.1613 706.841
    endloop
  endfacet
  facet normal -0.995163 -0 -0.0982422
    outer loop
      vertex  -24.6771 68.1613 706.841
      vertex  -23.7123 -72.8387 697.068
      vertex  -24.6771 -72.8387 706.841
    endloop
  endfacet
  facet normal -0.976815 0 0.214085
    outer loop
      vertex  -24.6771 68.1613 706.841
      vertex  -24.6771 -72.8387 706.841
      vertex  -22.5749 68.1613 716.433
    endloop
  endfacet
  facet normal -0.976815 0 0.214085
    outer loop
      vertex  -22.5749 68.1613 716.433
      vertex  -24.6771 -72.8387 706.841
      vertex  -22.5749 -72.8387 716.433
    endloop
  endfacet
  facet normal -0.86285 0 0.50546
    outer loop
      vertex  -22.5749 68.1613 716.433
      vertex  -22.5749 -72.8387 716.433
      vertex  -17.6114 68.1613 724.906
    endloop
  endfacet
  facet normal -0.86285 0 0.50546
    outer loop
      vertex  -17.6114 68.1613 724.906
      vertex  -22.5749 -72.8387 716.433
      vertex  -17.6114 -72.8387 724.906
    endloop
  endfacet
  facet normal -0.664397 0 0.74738
    outer loop
      vertex  -17.6114 68.1613 724.906
      vertex  -17.6114 -72.8387 724.906
      vertex  -10.2725 68.1613 731.43
    endloop
  endfacet
  facet normal -0.664397 0 0.74738
    outer loop
      vertex  -10.2725 68.1613 731.43
      vertex  -17.6114 -72.8387 724.906
      vertex  -10.2725 -72.8387 731.43
    endloop
  endfacet
  facet normal -0.401013 0 0.916072
    outer loop
      vertex  -10.2725 68.1613 731.43
      vertex  -10.2725 -72.8387 731.43
      vertex  -1.27654 68.1613 735.368
    endloop
  endfacet
  facet normal -0.401013 0 0.916072
    outer loop
      vertex  -1.27654 68.1613 735.368
      vertex  -10.2725 -72.8387 731.43
      vertex  -1.27654 -72.8387 735.368
    endloop
  endfacet
  facet normal -0.0981682 0 0.99517
    outer loop
      vertex  -1.27654 68.1613 735.368
      vertex  -1.27654 -72.8387 735.368
      vertex  8.4958 68.1613 736.332
    endloop
  endfacet
  facet normal -0.0981682 0 0.99517
    outer loop
      vertex  8.4958 68.1613 736.332
      vertex  -1.27654 -72.8387 735.368
      vertex  8.4958 -72.8387 736.332
    endloop
  endfacet
  facet normal 0.214064 0 0.97682
    outer loop
      vertex  8.4958 68.1613 736.332
      vertex  8.4958 -72.8387 736.332
      vertex  18.0879 68.1613 734.23
    endloop
  endfacet
  facet normal 0.214064 0 0.97682
    outer loop
      vertex  18.0879 68.1613 734.23
      vertex  8.4958 -72.8387 736.332
      vertex  18.0879 -72.8387 734.23
    endloop
  endfacet
  facet normal 0.505418 0 0.862875
    outer loop
      vertex  18.0879 68.1613 734.23
      vertex  18.0879 -72.8387 734.23
      vertex  26.561 68.1613 729.267
    endloop
  endfacet
  facet normal 0.505418 0 0.862875
    outer loop
      vertex  26.561 68.1613 729.267
      vertex  18.0879 -72.8387 734.23
      vertex  26.561 -72.8387 729.267
    endloop
  endfacet
  facet normal 0.64764 0 0.761946
    outer loop
      vertex  26.561 68.1613 729.267
      vertex  26.561 -72.8387 729.267
      vertex  34.0435 68.1613 722.907
    endloop
  endfacet
  facet normal 0.64764 0 0.761946
    outer loop
      vertex  34.0435 68.1613 722.907
      vertex  26.561 -72.8387 729.267
      vertex  34.0435 -72.8387 722.907
    endloop
  endfacet
  facet normal 0.770085 0 0.637942
    outer loop
      vertex  34.0435 68.1613 722.907
      vertex  34.0435 -72.8387 722.907
      vertex  40.3079 68.1613 715.345
    endloop
  endfacet
  facet normal 0.770085 0 0.637942
    outer loop
      vertex  40.3079 68.1613 715.345
      vertex  34.0435 -72.8387 722.907
      vertex  40.3079 -72.8387 715.345
    endloop
  endfacet
  facet normal 0.869163 0 0.494526
    outer loop
      vertex  40.3079 68.1613 715.345
      vertex  40.3079 -72.8387 715.345
      vertex  45.164 68.1613 706.81
    endloop
  endfacet
  facet normal 0.869163 0 0.494526
    outer loop
      vertex  45.164 68.1613 706.81
      vertex  40.3079 -72.8387 715.345
      vertex  45.164 -72.8387 706.81
    endloop
  endfacet
  facet normal 0.945519 0 0.325568
    outer loop
      vertex  45.164 68.1613 706.81
      vertex  45.164 -72.8387 706.81
      vertex  108.163 68.1613 523.846
    endloop
  endfacet
  facet normal 0.945519 0 0.325568
    outer loop
      vertex  108.163 68.1613 523.846
      vertex  45.164 -72.8387 706.81
      vertex  108.163 -72.8387 523.846
    endloop
  endfacet
  facet normal 0.945519 0 0.325566
    outer loop
      vertex  108.163 68.1613 523.846
      vertex  108.163 -72.8387 523.846
      vertex  112.336 -92.3387 511.728
    endloop
  endfacet
  facet normal 0.945519 -0 0.325566
    outer loop
      vertex  112.336 -92.3387 511.728
      vertex  112.336 87.6613 511.728
      vertex  108.163 68.1613 523.846
    endloop
  endfacet
  facet normal -0.707107 0.707107 0
    outer loop
      vertex  -8.8447 87.6613 164.833
      vertex  -12.8447 83.6613 162.333
      vertex  -8.8447 87.6613 548.777
    endloop
  endfacet
  facet normal -0.707107 0.707107 0
    outer loop
      vertex  -8.8447 87.6613 548.777
      vertex  -12.8447 83.6613 162.333
      vertex  -12.8447 83.6613 552.224
    endloop
  endfacet
  facet normal 0 0 -1
    outer loop
      vertex  -7.77845 -142.339 -25
      vertex  -7.77845 -92.3387 -25
      vertex  21.0891 -142.339 -25
    endloop
  endfacet
  facet normal 0 0 -1
    outer loop
      vertex  21.0891 -142.339 -25
      vertex  -7.77845 -92.3387 -25
      vertex  21.0891 -92.3387 -25
    endloop
  endfacet
  facet normal 0 -0 1
    outer loop
      vertex  21.0891 -142.339 25
      vertex  21.0891 -92.3387 25
      vertex  -7.77845 -142.339 25
    endloop
  endfacet
  facet normal 0 0 1
    outer loop
      vertex  -7.77845 -142.339 25
      vertex  21.0891 -92.3387 25
      vertex  -7.77845 -92.3387 25
    endloop
  endfacet
  facet normal 0.707085 0 -0.707129
    outer loop
      vertex  -2.00497 -72.8387 710
      vertex  -2.00497 68.1613 710
      vertex  1.6553 -72.8387 713.66
    endloop
  endfacet
  facet normal 0.707085 0 -0.707129
    outer loop
      vertex  1.6553 -72.8387 713.66
      vertex  -2.00497 68.1613 710
      vertex  1.6553 68.1613 713.66
    endloop
  endfacet
  facet normal 0.258859 0 -0.965915
    outer loop
      vertex  1.6553 -72.8387 713.66
      vertex  1.6553 68.1613 713.66
      vertex  6.65529 -72.8387 715
    endloop
  endfacet
  facet normal 0.258859 0 -0.965915
    outer loop
      vertex  6.65529 -72.8387 715
      vertex  1.6553 68.1613 713.66
      vertex  6.65529 68.1613 715
    endloop
  endfacet
  facet normal 0.707102 -0 0.707111
    outer loop
      vertex  1.6553 -92.3387 -8.66022
      vertex  1.6553 -72.3387 -8.66022
      vertex  -2.00497 -92.3387 -5
    endloop
  endfacet
  facet normal 0.258826 -0 0.965924
    outer loop
      vertex  1.6553 -92.3387 -8.66022
      vertex  6.65529 -72.3387 -10
      vertex  1.6553 -72.3387 -8.66022
    endloop
  endfacet
  facet normal 0.707102 -0 0.707111
    outer loop
      vertex  -2.00497 -92.3387 -5
      vertex  1.6553 -72.3387 -8.66022
      vertex  -2.00497 -72.3387 -5
    endloop
  endfacet
  facet normal 0.258826 -0 0.965924
    outer loop
      vertex  6.65529 -92.3387 -10
      vertex  6.65529 -72.3387 -10
      vertex  1.6553 -92.3387 -8.66022
    endloop
  endfacet
  facet normal 0.707102 -0 0.707111
    outer loop
      vertex  1.6553 65.1613 -8.66022
      vertex  1.6553 87.6613 -8.66022
      vertex  -2.00497 65.1613 -5
    endloop
  endfacet
  facet normal 0.258826 -0 0.965924
    outer loop
      vertex  1.6553 65.1613 -8.66022
      vertex  6.65529 87.6613 -10
      vertex  1.6553 87.6613 -8.66022
    endloop
  endfacet
  facet normal 0.707102 -0 0.707111
    outer loop
      vertex  -2.00497 65.1613 -5
      vertex  1.6553 87.6613 -8.66022
      vertex  -2.00497 87.6613 -5
    endloop
  endfacet
  facet normal 0.258826 -0 0.965924
    outer loop
      vertex  6.65529 65.1613 -10
      vertex  6.65529 87.6613 -10
      vertex  1.6553 65.1613 -8.66022
    endloop
  endfacet
  facet normal 0.965926 -0 0.258817
    outer loop
      vertex  -3.34471 -72.8387 705
      vertex  -2.00497 68.1613 700
      vertex  -3.34471 68.1613 705
    endloop
  endfacet
  facet normal 0.965926 -0 0.258817
    outer loop
      vertex  -2.00497 -72.8387 700
      vertex  -2.00497 68.1613 700
      vertex  -3.34471 -72.8387 705
    endloop
  endfacet
  facet normal 0.965926 0 -0.258817
    outer loop
      vertex  -3.34471 -72.8387 705
      vertex  -3.34471 68.1613 705
      vertex  -2.00497 -72.8387 710
    endloop
  endfacet
  facet normal 0.965926 0 -0.258817
    outer loop
      vertex  -2.00497 -72.8387 710
      vertex  -3.34471 68.1613 705
      vertex  -2.00497 68.1613 710
    endloop
  endfacet
  facet normal 0.707108 0 -0.707105
    outer loop
      vertex  -2.00497 -92.3387 5
      vertex  -2.00497 -72.3387 5
      vertex  1.6553 -92.3387 8.66028
    endloop
  endfacet
  facet normal 0.965926 0 -0.258817
    outer loop
      vertex  -2.00497 -92.3387 5
      vertex  -3.34471 -72.3387 0
      vertex  -2.00497 -72.3387 5
    endloop
  endfacet
  facet normal 0.707108 0 -0.707105
    outer loop
      vertex  1.6553 -92.3387 8.66028
      vertex  -2.00497 -72.3387 5
      vertex  1.6553 -72.3387 8.66028
    endloop
  endfacet
  facet normal 0.965926 0 -0.258817
    outer loop
      vertex  -3.34471 -92.3387 0
      vertex  -3.34471 -72.3387 0
      vertex  -2.00497 -92.3387 5
    endloop
  endfacet
  facet normal 0.965926 -0 0.258817
    outer loop
      vertex  -3.34471 -92.3387 0
      vertex  -2.00497 -72.3387 -5
      vertex  -3.34471 -72.3387 0
    endloop
  endfacet
  facet normal 0.965926 -0 0.258817
    outer loop
      vertex  -2.00497 -92.3387 -5
      vertex  -2.00497 -72.3387 -5
      vertex  -3.34471 -92.3387 0
    endloop
  endfacet
  facet normal 0.707108 0 -0.707105
    outer loop
      vertex  -2.00497 65.1613 5
      vertex  -2.00497 87.6613 5
      vertex  1.6553 65.1613 8.66028
    endloop
  endfacet
  facet normal 0.965926 0 -0.258817
    outer loop
      vertex  -2.00497 65.1613 5
      vertex  -3.34471 87.6613 0
      vertex  -2.00497 87.6613 5
    endloop
  endfacet
  facet normal 0.707108 0 -0.707105
    outer loop
      vertex  1.6553 65.1613 8.66028
      vertex  -2.00497 87.6613 5
      vertex  1.6553 87.6613 8.66028
    endloop
  endfacet
  facet normal 0.965926 0 -0.258817
    outer loop
      vertex  -3.34471 65.1613 0
      vertex  -3.34471 87.6613 0
      vertex  -2.00497 65.1613 5
    endloop
  endfacet
  facet normal 0.965926 -0 0.258817
    outer loop
      vertex  -3.34471 65.1613 0
      vertex  -2.00497 87.6613 -5
      vertex  -3.34471 87.6613 0
    endloop
  endfacet
  facet normal 0.965926 -0 0.258817
    outer loop
      vertex  -2.00497 65.1613 -5
      vertex  -2.00497 87.6613 -5
      vertex  -3.34471 65.1613 0
    endloop
  endfacet
  facet normal 0.258859 -0 0.965915
    outer loop
      vertex  1.6553 -72.8387 696.34
      vertex  6.65529 68.1613 695
      vertex  1.6553 68.1613 696.34
    endloop
  endfacet
  facet normal 0.258859 -0 0.965915
    outer loop
      vertex  6.65529 -72.8387 695
      vertex  6.65529 68.1613 695
      vertex  1.6553 -72.8387 696.34
    endloop
  endfacet
  facet normal 0.707085 -0 0.707129
    outer loop
      vertex  1.6553 -72.8387 696.34
      vertex  1.6553 68.1613 696.34
      vertex  -2.00497 -72.8387 700
    endloop
  endfacet
  facet normal 0.707085 -0 0.707129
    outer loop
      vertex  -2.00497 -72.8387 700
      vertex  1.6553 68.1613 696.34
      vertex  -2.00497 68.1613 700
    endloop
  endfacet
  facet normal -0.258826 0 0.965924
    outer loop
      vertex  11.6553 65.1613 -8.66022
      vertex  11.6553 87.6613 -8.66022
      vertex  6.65529 65.1613 -10
    endloop
  endfacet
  facet normal -0.707108 0 0.707105
    outer loop
      vertex  11.6553 65.1613 -8.66022
      vertex  15.3155 87.6613 -5
      vertex  11.6553 87.6613 -8.66022
    endloop
  endfacet
  facet normal -0.258826 0 0.965924
    outer loop
      vertex  6.65529 65.1613 -10
      vertex  11.6553 87.6613 -8.66022
      vertex  6.65529 87.6613 -10
    endloop
  endfacet
  facet normal -0.707108 0 0.707105
    outer loop
      vertex  15.3155 65.1613 -5
      vertex  15.3155 87.6613 -5
      vertex  11.6553 65.1613 -8.66022
    endloop
  endfacet
  facet normal -0.965923 0 0.258828
    outer loop
      vertex  15.3155 65.1613 -5
      vertex  16.6553 87.6613 0
      vertex  15.3155 87.6613 -5
    endloop
  endfacet
  facet normal -0.965923 0 0.258828
    outer loop
      vertex  16.6553 65.1613 0
      vertex  16.6553 87.6613 0
      vertex  15.3155 65.1613 -5
    endloop
  endfacet
  facet normal -0.258815 0 -0.965927
    outer loop
      vertex  6.65529 -92.3387 10
      vertex  6.65529 -72.3387 10
      vertex  11.6553 -92.3387 8.66028
    endloop
  endfacet
  facet normal 0.258815 0 -0.965927
    outer loop
      vertex  6.65529 -92.3387 10
      vertex  1.6553 -72.3387 8.66028
      vertex  6.65529 -72.3387 10
    endloop
  endfacet
  facet normal -0.258815 0 -0.965927
    outer loop
      vertex  11.6553 -92.3387 8.66028
      vertex  6.65529 -72.3387 10
      vertex  11.6553 -72.3387 8.66028
    endloop
  endfacet
  facet normal 0.258815 0 -0.965927
    outer loop
      vertex  1.6553 -92.3387 8.66028
      vertex  1.6553 -72.3387 8.66028
      vertex  6.65529 -92.3387 10
    endloop
  endfacet
  facet normal -0.258815 0 -0.965927
    outer loop
      vertex  6.65529 65.1613 10
      vertex  6.65529 87.6613 10
      vertex  11.6553 65.1613 8.66028
    endloop
  endfacet
  facet normal 0.258815 0 -0.965927
    outer loop
      vertex  6.65529 65.1613 10
      vertex  1.6553 87.6613 8.66028
      vertex  6.65529 87.6613 10
    endloop
  endfacet
  facet normal -0.258815 0 -0.965927
    outer loop
      vertex  11.6553 65.1613 8.66028
      vertex  6.65529 87.6613 10
      vertex  11.6553 87.6613 8.66028
    endloop
  endfacet
  facet normal 0.258815 0 -0.965927
    outer loop
      vertex  1.6553 65.1613 8.66028
      vertex  1.6553 87.6613 8.66028
      vertex  6.65529 65.1613 10
    endloop
  endfacet
  facet normal -0.965923 0 0.258828
    outer loop
      vertex  16.6553 -72.8387 705
      vertex  16.6553 68.1613 705
      vertex  15.3155 -72.8387 700
    endloop
  endfacet
  facet normal -0.965923 0 0.258828
    outer loop
      vertex  15.3155 -72.8387 700
      vertex  16.6553 68.1613 705
      vertex  15.3155 68.1613 700
    endloop
  endfacet
  facet normal -0.707091 0 -0.707123
    outer loop
      vertex  11.6553 -72.8387 713.66
      vertex  11.6553 68.1613 713.66
      vertex  15.3155 -72.8387 710
    endloop
  endfacet
  facet normal -0.258859 0 -0.965915
    outer loop
      vertex  11.6553 -72.8387 713.66
      vertex  6.65529 68.1613 715
      vertex  11.6553 68.1613 713.66
    endloop
  endfacet
  facet normal -0.707091 0 -0.707123
    outer loop
      vertex  15.3155 -72.8387 710
      vertex  11.6553 68.1613 713.66
      vertex  15.3155 68.1613 710
    endloop
  endfacet
  facet normal -0.258859 0 -0.965915
    outer loop
      vertex  6.65529 -72.8387 715
      vertex  6.65529 68.1613 715
      vertex  11.6553 -72.8387 713.66
    endloop
  endfacet
  facet normal -0.965923 0 -0.258828
    outer loop
      vertex  15.3155 -92.3387 5
      vertex  15.3155 -72.3387 5
      vertex  16.6553 -92.3387 0
    endloop
  endfacet
  facet normal -0.707114 0 -0.707099
    outer loop
      vertex  15.3155 -92.3387 5
      vertex  11.6553 -72.3387 8.66028
      vertex  15.3155 -72.3387 5
    endloop
  endfacet
  facet normal -0.965923 0 -0.258828
    outer loop
      vertex  16.6553 -92.3387 0
      vertex  15.3155 -72.3387 5
      vertex  16.6553 -72.3387 0
    endloop
  endfacet
  facet normal -0.707114 0 -0.707099
    outer loop
      vertex  11.6553 -92.3387 8.66028
      vertex  11.6553 -72.3387 8.66028
      vertex  15.3155 -92.3387 5
    endloop
  endfacet
  facet normal -0.965923 0 -0.258828
    outer loop
      vertex  15.3155 -72.8387 710
      vertex  15.3155 68.1613 710
      vertex  16.6553 -72.8387 705
    endloop
  endfacet
  facet normal -0.965923 0 -0.258828
    outer loop
      vertex  16.6553 -72.8387 705
      vertex  15.3155 68.1613 710
      vertex  16.6553 68.1613 705
    endloop
  endfacet
  facet normal -0.965923 0 -0.258828
    outer loop
      vertex  15.3155 65.1613 5
      vertex  15.3155 87.6613 5
      vertex  16.6553 65.1613 0
    endloop
  endfacet
  facet normal -0.707114 0 -0.707099
    outer loop
      vertex  15.3155 65.1613 5
      vertex  11.6553 87.6613 8.66028
      vertex  15.3155 87.6613 5
    endloop
  endfacet
  facet normal -0.965923 0 -0.258828
    outer loop
      vertex  16.6553 65.1613 0
      vertex  15.3155 87.6613 5
      vertex  16.6553 87.6613 0
    endloop
  endfacet
  facet normal -0.707114 0 -0.707099
    outer loop
      vertex  11.6553 65.1613 8.66028
      vertex  11.6553 87.6613 8.66028
      vertex  15.3155 65.1613 5
    endloop
  endfacet
  facet normal 0.866026 0 -0.499998
    outer loop
      vertex  21.0891 -142.339 -25
      vertex  21.0891 -92.3387 -25
      vertex  35.5228 -142.339 0
    endloop
  endfacet
  facet normal 0.866026 0 -0.499998
    outer loop
      vertex  35.5228 -142.339 0
      vertex  21.0891 -92.3387 -25
      vertex  35.5228 -92.3387 0
    endloop
  endfacet
  facet normal 0.866026 -0 0.499998
    outer loop
      vertex  35.5228 -142.339 0
      vertex  35.5228 -92.3387 0
      vertex  21.0891 -142.339 25
    endloop
  endfacet
  facet normal 0.866026 -0 0.499998
    outer loop
      vertex  21.0891 -142.339 25
      vertex  35.5228 -92.3387 0
      vertex  21.0891 -92.3387 25
    endloop
  endfacet
  facet normal -1 0 -0
    outer loop
      vertex  68.6553 65.1613 162.333
      vertex  68.6553 65.1613 0
      vertex  68.6553 35.6614 65
    endloop
  endfacet
  facet normal -1 -0 0
    outer loop
      vertex  68.6553 65.1613 162.333
      vertex  68.6553 35.6614 65
      vertex  68.6553 -72.3387 162.333
    endloop
  endfacet
  facet normal -1 0 0
    outer loop
      vertex  68.6553 -72.3387 162.333
      vertex  68.6553 35.6614 65
      vertex  68.6553 -36.8386 65
    endloop
  endfacet
  facet normal -1 0 0
    outer loop
      vertex  68.6553 -72.3387 162.333
      vertex  68.6553 -36.8386 65
      vertex  68.6553 -72.3387 0
    endloop
  endfacet
  facet normal 0 0 -1
    outer loop
      vertex  68.6553 -72.3387 162.333
      vertex  -12.8447 -72.3387 162.333
      vertex  68.6553 65.1613 162.333
    endloop
  endfacet
  facet normal -0 0 -1
    outer loop
      vertex  68.6553 65.1613 162.333
      vertex  -12.8447 -72.3387 162.333
      vertex  -12.8447 65.1613 162.333
    endloop
  endfacet
  facet normal 0 0.877637 -0.479325
    outer loop
      vertex  151.253 -36.8386 65
      vertex  68.6553 -72.3387 0
      vertex  68.6553 -36.8386 65
    endloop
  endfacet
  facet normal 0 0.877637 -0.479325
    outer loop
      vertex  154.659 -72.3387 0
      vertex  68.6553 -72.3387 0
      vertex  151.253 -36.8386 65
    endloop
  endfacet
  facet normal 0 1 0
    outer loop
      vertex  154.659 -72.3387 0
      vertex  151.838 -72.3387 -16
      vertex  68.6553 -72.3387 0
    endloop
  endfacet
  facet normal 0 1 0
    outer loop
      vertex  68.6553 -72.3387 0
      vertex  151.838 -72.3387 -16
      vertex  137.781 -72.3387 -59.2624
    endloop
  endfacet
  facet normal 0 1 0
    outer loop
      vertex  137.781 -72.3387 -59.2624
      vertex  -21.2878 -72.3387 -86
      vertex  68.6553 -72.3387 0
    endloop
  endfacet
  facet normal 0 1 0
    outer loop
      vertex  137.781 -72.3387 -59.2624
      vertex  100.98 -72.3387 -86
      vertex  -21.2878 -72.3387 -86
    endloop
  endfacet
  facet normal 0 1 0
    outer loop
      vertex  68.6553 -72.3387 0
      vertex  -21.2878 -72.3387 -86
      vertex  11.6553 -72.3387 -8.66022
    endloop
  endfacet
  facet normal -0 1 0
    outer loop
      vertex  6.65529 -72.3387 -10
      vertex  11.6553 -72.3387 -8.66022
      vertex  -21.2878 -72.3387 -86
    endloop
  endfacet
  facet normal 0 1 0
    outer loop
      vertex  68.6553 -72.3387 0
      vertex  11.6553 -72.3387 -8.66022
      vertex  15.3155 -72.3387 -5
    endloop
  endfacet
  facet normal 0 1 0
    outer loop
      vertex  -21.2878 -72.3387 -86
      vertex  1.6553 -72.3387 -8.66022
      vertex  6.65529 -72.3387 -10
    endloop
  endfacet
  facet normal 0 1 0
    outer loop
      vertex  15.3155 -72.3387 -5
      vertex  16.6553 -72.3387 0
      vertex  68.6553 -72.3387 0
    endloop
  endfacet
  facet normal 0 1 0
    outer loop
      vertex  -21.2878 -72.3387 -86
      vertex  -2.00497 -72.3387 -5
      vertex  1.6553 -72.3387 -8.66022
    endloop
  endfacet
  facet normal 0 1 0
    outer loop
      vertex  68.6553 -72.3387 0
      vertex  16.6553 -72.3387 0
      vertex  15.3155 -72.3387 5
    endloop
  endfacet
  facet normal -0 1 0
    outer loop
      vertex  -66.5007 -72.3387 -53.1509
      vertex  -2.00497 -72.3387 -5
      vertex  -21.2878 -72.3387 -86
    endloop
  endfacet
  facet normal 0 1 -0
    outer loop
      vertex  68.6553 -72.3387 0
      vertex  15.3155 -72.3387 5
      vertex  68.6553 -72.3387 162.333
    endloop
  endfacet
  facet normal 0 1 0
    outer loop
      vertex  -66.5007 -72.3387 -53.1509
      vertex  -3.34471 -72.3387 0
      vertex  -2.00497 -72.3387 -5
    endloop
  endfacet
  facet normal 0 1 0
    outer loop
      vertex  68.6553 -72.3387 162.333
      vertex  15.3155 -72.3387 5
      vertex  11.6553 -72.3387 8.66028
    endloop
  endfacet
  facet normal 0 1 0
    outer loop
      vertex  -108.408 -72.3387 83.9213
      vertex  -3.34471 -72.3387 0
      vertex  -66.5007 -72.3387 -53.1509
    endloop
  endfacet
  facet normal 0 1 0
    outer loop
      vertex  68.6553 -72.3387 162.333
      vertex  11.6553 -72.3387 8.66028
      vertex  -12.8447 -72.3387 162.333
    endloop
  endfacet
  facet normal 0 1 0
    outer loop
      vertex  -108.408 -72.3387 83.9213
      vertex  -2.00497 -72.3387 5
      vertex  -3.34471 -72.3387 0
    endloop
  endfacet
  facet normal 0 1 0
    outer loop
      vertex  -12.8447 -72.3387 162.333
      vertex  11.6553 -72.3387 8.66028
      vertex  6.65529 -72.3387 10
    endloop
  endfacet
  facet normal 0 1 0
    outer loop
      vertex  -106.333 -72.3387 97.4578
      vertex  -2.00497 -72.3387 5
      vertex  -108.408 -72.3387 83.9213
    endloop
  endfacet
  facet normal 0 1 0
    outer loop
      vertex  -12.8447 -72.3387 162.333
      vertex  6.65529 -72.3387 10
      vertex  -98.5904 -72.3387 108.754
    endloop
  endfacet
  facet normal 0 1 0
    outer loop
      vertex  -106.333 -72.3387 97.4578
      vertex  1.6553 -72.3387 8.66028
      vertex  -2.00497 -72.3387 5
    endloop
  endfacet
  facet normal 0 1 0
    outer loop
      vertex  -98.5904 -72.3387 108.754
      vertex  6.65529 -72.3387 10
      vertex  1.6553 -72.3387 8.66028
    endloop
  endfacet
  facet normal 0 1 0
    outer loop
      vertex  -98.5904 -72.3387 108.754
      vertex  1.6553 -72.3387 8.66028
      vertex  -106.333 -72.3387 97.4578
    endloop
  endfacet
  facet normal 0 -1 0
    outer loop
      vertex  6.65529 65.1613 10
      vertex  68.6553 65.1613 0
      vertex  68.6553 65.1613 162.333
    endloop
  endfacet
  facet normal 0 -1 0
    outer loop
      vertex  11.6553 65.1613 8.66028
      vertex  68.6553 65.1613 0
      vertex  6.65529 65.1613 10
    endloop
  endfacet
  facet normal 0 -1 0
    outer loop
      vertex  6.65529 65.1613 10
      vertex  68.6553 65.1613 162.333
      vertex  -12.8447 65.1613 162.333
    endloop
  endfacet
  facet normal 0 -1 0
    outer loop
      vertex  11.6553 65.1613 8.66028
      vertex  15.3155 65.1613 5
      vertex  68.6553 65.1613 0
    endloop
  endfacet
  facet normal 0 -1 0
    outer loop
      vertex  1.6553 65.1613 8.66028
      vertex  6.65529 65.1613 10
      vertex  -12.8447 65.1613 162.333
    endloop
  endfacet
  facet normal 0 -1 0
    outer loop
      vertex  68.6553 65.1613 0
      vertex  15.3155 65.1613 5
      vertex  16.6553 65.1613 0
    endloop
  endfacet
  facet normal 0 -1 0
    outer loop
      vertex  -98.5904 65.1613 108.754
      vertex  1.6553 65.1613 8.66028
      vertex  -12.8447 65.1613 162.333
    endloop
  endfacet
  facet normal -0 -1 0
    outer loop
      vertex  68.6553 65.1613 0
      vertex  16.6553 65.1613 0
      vertex  15.3155 65.1613 -5
    endloop
  endfacet
  facet normal 0 -1 0
    outer loop
      vertex  -106.333 65.1613 97.4578
      vertex  1.6553 65.1613 8.66028
      vertex  -98.5904 65.1613 108.754
    endloop
  endfacet
  facet normal 0 -1 0
    outer loop
      vertex  137.781 65.1613 -59.2624
      vertex  68.6553 65.1613 0
      vertex  15.3155 65.1613 -5
    endloop
  endfacet
  facet normal 0 -1 0
    outer loop
      vertex  -106.333 65.1613 97.4578
      vertex  -2.00497 65.1613 5
      vertex  1.6553 65.1613 8.66028
    endloop
  endfacet
  facet normal -0 -1 0
    outer loop
      vertex  154.659 65.1613 0
      vertex  68.6553 65.1613 0
      vertex  137.781 65.1613 -59.2624
    endloop
  endfacet
  facet normal -0 -1 0
    outer loop
      vertex  137.781 65.1613 -59.2624
      vertex  15.3155 65.1613 -5
      vertex  100.98 65.1613 -86
    endloop
  endfacet
  facet normal 0 -1 0
    outer loop
      vertex  -108.408 65.1613 83.9213
      vertex  -2.00497 65.1613 5
      vertex  -106.333 65.1613 97.4578
    endloop
  endfacet
  facet normal -0 -0.910606 -0.413275
    outer loop
      vertex  154.659 65.1613 0
      vertex  68.6553 35.6614 65
      vertex  68.6553 65.1613 0
    endloop
  endfacet
  facet normal 0 -1 0
    outer loop
      vertex  137.781 65.1613 -59.2624
      vertex  151.838 65.1613 -16
      vertex  154.659 65.1613 0
    endloop
  endfacet
  facet normal 0 -1 0
    outer loop
      vertex  100.98 65.1613 -86
      vertex  15.3155 65.1613 -5
      vertex  11.6553 65.1613 -8.66022
    endloop
  endfacet
  facet normal 0 -1 0
    outer loop
      vertex  -108.408 65.1613 83.9213
      vertex  -3.34471 65.1613 0
      vertex  -2.00497 65.1613 5
    endloop
  endfacet
  facet normal -0 -0.910606 -0.413275
    outer loop
      vertex  151.253 35.6614 65
      vertex  68.6553 35.6614 65
      vertex  154.659 65.1613 0
    endloop
  endfacet
  facet normal 0 -1 0
    outer loop
      vertex  100.98 65.1613 -86
      vertex  11.6553 65.1613 -8.66022
      vertex  -21.2878 65.1613 -86
    endloop
  endfacet
  facet normal 0 -1 0
    outer loop
      vertex  -2.00497 65.1613 -5
      vertex  -3.34471 65.1613 0
      vertex  -108.408 65.1613 83.9213
    endloop
  endfacet
  facet normal 0 -1 0
    outer loop
      vertex  -21.2878 65.1613 -86
      vertex  11.6553 65.1613 -8.66022
      vertex  6.65529 65.1613 -10
    endloop
  endfacet
  facet normal 0 -1 0
    outer loop
      vertex  -66.5007 65.1613 -53.1509
      vertex  -2.00497 65.1613 -5
      vertex  -108.408 65.1613 83.9213
    endloop
  endfacet
  facet normal 0 -1 0
    outer loop
      vertex  -21.2878 65.1613 -86
      vertex  6.65529 65.1613 -10
      vertex  1.6553 65.1613 -8.66022
    endloop
  endfacet
  facet normal 0 -1 0
    outer loop
      vertex  -66.5007 65.1613 -53.1509
      vertex  1.6553 65.1613 -8.66022
      vertex  -2.00497 65.1613 -5
    endloop
  endfacet
  facet normal 0 -1 0
    outer loop
      vertex  -21.2878 65.1613 -86
      vertex  1.6553 65.1613 -8.66022
      vertex  -66.5007 65.1613 -53.1509
    endloop
  endfacet
  facet normal -0 -1 0
    outer loop
      vertex  138.811 -97.3387 483.984
      vertex  129.044 -97.3387 512.35
      vertex  104.772 -97.3387 472.264
    endloop
  endfacet
  facet normal 0 -1 0
    outer loop
      vertex  104.772 -97.3387 472.264
      vertex  129.044 -97.3387 512.35
      vertex  95.0052 -97.3387 500.63
    endloop
  endfacet
  facet normal -0.945519 0 -0.325566
    outer loop
      vertex  95.0052 -97.3387 500.63
      vertex  95.0052 -92.3387 500.63
      vertex  104.772 -97.3387 472.264
    endloop
  endfacet
  facet normal -0.945519 0 -0.325566
    outer loop
      vertex  104.772 -97.3387 472.264
      vertex  95.0052 -92.3387 500.63
      vertex  104.772 -92.3387 472.264
    endloop
  endfacet
  facet normal -0.325555 0 0.945523
    outer loop
      vertex  124.176 -92.3387 510.674
      vertex  95.0052 -92.3387 500.63
      vertex  95.0052 -97.3387 500.63
    endloop
  endfacet
  facet normal -0.325556 9.28246e-06 0.945523
    outer loop
      vertex  129.044 -97.3387 512.35
      vertex  124.176 -92.3387 510.674
      vertex  95.0052 -97.3387 500.63
    endloop
  endfacet
  facet normal -0.325565 0 0.94552
    outer loop
      vertex  129.044 -42.3386 512.35
      vertex  124.176 -92.3387 510.674
      vertex  129.044 -97.3387 512.35
    endloop
  endfacet
  facet normal -0.325565 0 0.94552
    outer loop
      vertex  129.044 -42.3386 512.35
      vertex  129.044 37.6614 512.35
      vertex  124.176 -92.3387 510.674
    endloop
  endfacet
  facet normal -0.325551 0 0.945525
    outer loop
      vertex  147.954 37.6614 518.861
      vertex  129.044 37.6614 512.35
      vertex  129.044 -42.3386 512.35
    endloop
  endfacet
  facet normal -0.325565 0 0.94552
    outer loop
      vertex  124.176 -92.3387 510.674
      vertex  129.044 37.6614 512.35
      vertex  124.176 87.6613 510.674
    endloop
  endfacet
  facet normal -0.325551 0 0.945525
    outer loop
      vertex  129.044 -42.3386 512.35
      vertex  147.954 -42.3386 518.861
      vertex  147.954 37.6614 518.861
    endloop
  endfacet
  facet normal -0.325565 0 0.94552
    outer loop
      vertex  124.176 87.6613 510.674
      vertex  129.044 37.6614 512.35
      vertex  129.044 92.6613 512.35
    endloop
  endfacet
  facet normal -0.325555 -1.08314e-05 0.945523
    outer loop
      vertex  124.176 87.6613 510.674
      vertex  129.044 92.6613 512.35
      vertex  95.0052 87.6613 500.63
    endloop
  endfacet
  facet normal -0.325556 0 0.945523
    outer loop
      vertex  95.0052 87.6613 500.63
      vertex  129.044 92.6613 512.35
      vertex  95.0052 92.6613 500.63
    endloop
  endfacet
  facet normal 0 0 -1
    outer loop
      vertex  -21.2878 -72.3387 -86
      vertex  100.98 -72.3387 -86
      vertex  -21.2878 -92.3387 -86
    endloop
  endfacet
  facet normal 0 0 -1
    outer loop
      vertex  -21.2878 -92.3387 -86
      vertex  100.98 -72.3387 -86
      vertex  100.98 -92.3387 -86
    endloop
  endfacet
  facet normal -0 -0 -1
    outer loop
      vertex  100.98 87.6613 -86
      vertex  100.98 65.1613 -86
      vertex  -21.2878 87.6613 -86
    endloop
  endfacet
  facet normal 0 0 -1
    outer loop
      vertex  -21.2878 87.6613 -86
      vertex  100.98 65.1613 -86
      vertex  -21.2878 65.1613 -86
    endloop
  endfacet
  facet normal 0.32558 0 -0.945515
    outer loop
      vertex  104.772 87.6613 472.264
      vertex  104.772 92.6613 472.264
      vertex  134.083 87.6613 482.357
    endloop
  endfacet
  facet normal 0.325556 -0.000155471 -0.945523
    outer loop
      vertex  134.083 87.6613 482.357
      vertex  104.772 92.6613 472.264
      vertex  138.811 92.6613 483.984
    endloop
  endfacet
  facet normal 0.325409 0 -0.945573
    outer loop
      vertex  134.083 87.6613 482.357
      vertex  138.811 92.6613 483.984
      vertex  134.083 -92.3387 482.357
    endloop
  endfacet
  facet normal 0.325409 0 -0.945573
    outer loop
      vertex  134.083 -92.3387 482.357
      vertex  138.811 92.6613 483.984
      vertex  138.811 37.6614 483.984
    endloop
  endfacet
  facet normal 0.325409 0 -0.945573
    outer loop
      vertex  138.811 37.6614 483.984
      vertex  138.811 -42.3386 483.984
      vertex  134.083 -92.3387 482.357
    endloop
  endfacet
  facet normal 0.325596 0 -0.945509
    outer loop
      vertex  138.811 37.6614 483.984
      vertex  157.721 -42.3386 490.496
      vertex  138.811 -42.3386 483.984
    endloop
  endfacet
  facet normal 0.325409 0 -0.945573
    outer loop
      vertex  134.083 -92.3387 482.357
      vertex  138.811 -42.3386 483.984
      vertex  138.811 -97.3387 483.984
    endloop
  endfacet
  facet normal 0.325596 0 -0.945509
    outer loop
      vertex  157.721 37.6614 490.496
      vertex  157.721 -42.3386 490.496
      vertex  138.811 37.6614 483.984
    endloop
  endfacet
  facet normal 0.32558 0.000180545 -0.945515
    outer loop
      vertex  134.083 -92.3387 482.357
      vertex  138.811 -97.3387 483.984
      vertex  104.772 -92.3387 472.264
    endloop
  endfacet
  facet normal 0.325556 0 -0.945523
    outer loop
      vertex  104.772 -92.3387 472.264
      vertex  138.811 -97.3387 483.984
      vertex  104.772 -97.3387 472.264
    endloop
  endfacet
  facet normal 0 1 0
    outer loop
      vertex  104.772 87.6613 472.264
      vertex  134.083 87.6613 482.357
      vertex  130.984 87.6613 476.001
    endloop
  endfacet
  facet normal 0 1 -0
    outer loop
      vertex  125.31 87.6613 474.048
      vertex  104.772 87.6613 472.264
      vertex  130.984 87.6613 476.001
    endloop
  endfacet
  facet normal 0 1 0
    outer loop
      vertex  125.9 87.6613 472.336
      vertex  104.772 87.6613 472.264
      vertex  125.31 87.6613 474.048
    endloop
  endfacet
  facet normal 0 1 0
    outer loop
      vertex  125.9 87.6613 472.336
      vertex  -8.8447 87.6613 164.833
      vertex  104.772 87.6613 472.264
    endloop
  endfacet
  facet normal 0 1 0
    outer loop
      vertex  151.54 87.6613 -16.9163
      vertex  -8.8447 87.6613 164.833
      vertex  125.9 87.6613 472.336
    endloop
  endfacet
  facet normal 0 1 0
    outer loop
      vertex  104.772 87.6613 472.264
      vertex  -8.8447 87.6613 164.833
      vertex  95.0052 87.6613 500.63
    endloop
  endfacet
  facet normal 0 1 0
    outer loop
      vertex  151.54 87.6613 -16.9163
      vertex  15.3155 87.6613 5
      vertex  -8.8447 87.6613 164.833
    endloop
  endfacet
  facet normal 0 1 0
    outer loop
      vertex  95.0052 87.6613 500.63
      vertex  -8.8447 87.6613 164.833
      vertex  -8.8447 87.6613 548.777
    endloop
  endfacet
  facet normal -0 1 -0
    outer loop
      vertex  16.6553 87.6613 0
      vertex  15.3155 87.6613 5
      vertex  151.54 87.6613 -16.9163
    endloop
  endfacet
  facet normal 0 1 0
    outer loop
      vertex  15.3155 87.6613 5
      vertex  11.6553 87.6613 8.66028
      vertex  -8.8447 87.6613 164.833
    endloop
  endfacet
  facet normal 0 1 -0
    outer loop
      vertex  95.0052 87.6613 500.63
      vertex  -8.8447 87.6613 548.777
      vertex  112.336 87.6613 511.728
    endloop
  endfacet
  facet normal 0 1 0
    outer loop
      vertex  16.6553 87.6613 0
      vertex  151.54 87.6613 -16.9163
      vertex  15.3155 87.6613 -5
    endloop
  endfacet
  facet normal 0 1 0
    outer loop
      vertex  -8.8447 87.6613 164.833
      vertex  11.6553 87.6613 8.66028
      vertex  6.65529 87.6613 10
    endloop
  endfacet
  facet normal 0 1 0
    outer loop
      vertex  112.336 87.6613 511.728
      vertex  124.176 87.6613 510.674
      vertex  95.0052 87.6613 500.63
    endloop
  endfacet
  facet normal 0 1 0
    outer loop
      vertex  15.3155 87.6613 -5
      vertex  151.54 87.6613 -16.9163
      vertex  137.781 87.6613 -59.2624
    endloop
  endfacet
  facet normal 0 1 0
    outer loop
      vertex  -8.8447 87.6613 164.833
      vertex  6.65529 87.6613 10
      vertex  -98.5904 87.6613 108.754
    endloop
  endfacet
  facet normal 0 1 0
    outer loop
      vertex  118.009 87.6613 513.682
      vertex  124.176 87.6613 510.674
      vertex  112.336 87.6613 511.728
    endloop
  endfacet
  facet normal 0 1 0
    outer loop
      vertex  15.3155 87.6613 -5
      vertex  137.781 87.6613 -59.2624
      vertex  11.6553 87.6613 -8.66022
    endloop
  endfacet
  facet normal 0 1 0
    outer loop
      vertex  -98.5904 87.6613 108.754
      vertex  6.65529 87.6613 10
      vertex  1.6553 87.6613 8.66028
    endloop
  endfacet
  facet normal 0 1 0
    outer loop
      vertex  11.6553 87.6613 -8.66022
      vertex  137.781 87.6613 -59.2624
      vertex  100.98 87.6613 -86
    endloop
  endfacet
  facet normal 0 1 0
    outer loop
      vertex  -98.5904 87.6613 108.754
      vertex  1.6553 87.6613 8.66028
      vertex  -106.333 87.6613 97.4578
    endloop
  endfacet
  facet normal 0 1 0
    outer loop
      vertex  11.6553 87.6613 -8.66022
      vertex  100.98 87.6613 -86
      vertex  6.65529 87.6613 -10
    endloop
  endfacet
  facet normal 0 1 0
    outer loop
      vertex  -106.333 87.6613 97.4578
      vertex  1.6553 87.6613 8.66028
      vertex  -2.00497 87.6613 5
    endloop
  endfacet
  facet normal 0 1 0
    outer loop
      vertex  6.65529 87.6613 -10
      vertex  100.98 87.6613 -86
      vertex  -21.2878 87.6613 -86
    endloop
  endfacet
  facet normal 0 1 0
    outer loop
      vertex  -106.333 87.6613 97.4578
      vertex  -2.00497 87.6613 5
      vertex  -108.408 87.6613 83.9213
    endloop
  endfacet
  facet normal 0 1 0
    outer loop
      vertex  -21.2878 87.6613 -86
      vertex  1.6553 87.6613 -8.66022
      vertex  6.65529 87.6613 -10
    endloop
  endfacet
  facet normal 0 1 0
    outer loop
      vertex  -108.408 87.6613 83.9213
      vertex  -2.00497 87.6613 5
      vertex  -3.34471 87.6613 0
    endloop
  endfacet
  facet normal 0 1 0
    outer loop
      vertex  -21.2878 87.6613 -86
      vertex  -2.00497 87.6613 -5
      vertex  1.6553 87.6613 -8.66022
    endloop
  endfacet
  facet normal 0 1 0
    outer loop
      vertex  -108.408 87.6613 83.9213
      vertex  -3.34471 87.6613 0
      vertex  -66.5007 87.6613 -53.1509
    endloop
  endfacet
  facet normal -0 1 0
    outer loop
      vertex  -66.5007 87.6613 -53.1509
      vertex  -2.00497 87.6613 -5
      vertex  -21.2878 87.6613 -86
    endloop
  endfacet
  facet normal 0 1 0
    outer loop
      vertex  -66.5007 87.6613 -53.1509
      vertex  -3.34471 87.6613 0
      vertex  -2.00497 87.6613 -5
    endloop
  endfacet
  facet normal -0.945519 -0 -0.325566
    outer loop
      vertex  95.0052 92.6613 500.63
      vertex  104.772 92.6613 472.264
      vertex  95.0052 87.6613 500.63
    endloop
  endfacet
  facet normal -0.945519 0 -0.325566
    outer loop
      vertex  95.0052 87.6613 500.63
      vertex  104.772 92.6613 472.264
      vertex  104.772 87.6613 472.264
    endloop
  endfacet
  facet normal -0.325653 0 0.945489
    outer loop
      vertex  112.336 -92.3387 511.728
      vertex  118.009 -92.3387 513.682
      vertex  112.336 87.6613 511.728
    endloop
  endfacet
  facet normal -0.325653 0 0.945489
    outer loop
      vertex  112.336 87.6613 511.728
      vertex  118.009 -92.3387 513.682
      vertex  118.009 87.6613 513.682
    endloop
  endfacet
  facet normal 0.945544 0 0.325494
    outer loop
      vertex  125.9 87.6613 472.336
      vertex  125.31 -92.3387 474.048
      vertex  125.9 -92.3387 472.336
    endloop
  endfacet
  facet normal 0.945544 0 0.325494
    outer loop
      vertex  125.31 87.6613 474.048
      vertex  125.31 -92.3387 474.048
      vertex  125.9 87.6613 472.336
    endloop
  endfacet
  facet normal 0.945518 0 0.325571
    outer loop
      vertex  125.9 87.6613 472.336
      vertex  125.9 -92.3387 472.336
      vertex  130.624 83.6613 458.615
    endloop
  endfacet
  facet normal 0.945518 0 0.325571
    outer loop
      vertex  130.624 83.6613 458.615
      vertex  125.9 -92.3387 472.336
      vertex  130.624 -88.3387 458.615
    endloop
  endfacet
  facet normal 0.99863 0 0.052336
    outer loop
      vertex  151.253 -36.8386 65
      vertex  130.624 83.6613 458.615
      vertex  130.624 -88.3387 458.615
    endloop
  endfacet
  facet normal 0.99863 0 0.052336
    outer loop
      vertex  151.253 35.6614 65
      vertex  130.624 83.6613 458.615
      vertex  151.253 -36.8386 65
    endloop
  endfacet
  facet normal 0.99863 5.63035e-08 0.052336
    outer loop
      vertex  151.253 -36.8386 65
      vertex  130.624 -88.3387 458.615
      vertex  154.659 -72.3387 0
    endloop
  endfacet
  facet normal 0.99863 -4.43012e-08 0.052336
    outer loop
      vertex  151.253 35.6614 65
      vertex  154.659 83.6613 0
      vertex  130.624 83.6613 458.615
    endloop
  endfacet
  facet normal 0.99863 0 0.052336
    outer loop
      vertex  154.659 -72.3387 0
      vertex  130.624 -88.3387 458.615
      vertex  154.659 -88.3387 0
    endloop
  endfacet
  facet normal 0.99863 -0 0.052336
    outer loop
      vertex  154.659 65.1613 0
      vertex  154.659 83.6613 0
      vertex  151.253 35.6614 65
    endloop
  endfacet
  facet normal 0.984808 0 -0.173646
    outer loop
      vertex  154.659 -72.3387 0
      vertex  154.659 -88.3387 0
      vertex  151.838 -72.3387 -16
    endloop
  endfacet
  facet normal 0.984808 0 -0.173646
    outer loop
      vertex  154.659 65.1613 0
      vertex  151.838 87.3161 -16
      vertex  154.659 83.6613 0
    endloop
  endfacet
  facet normal 0.984808 0 -0.173646
    outer loop
      vertex  151.838 -72.3387 -16
      vertex  154.659 -88.3387 0
      vertex  151.838 -91.9934 -16
    endloop
  endfacet
  facet normal 0.984808 0 -0.173646
    outer loop
      vertex  151.838 65.1613 -16
      vertex  151.838 87.3161 -16
      vertex  154.659 65.1613 0
    endloop
  endfacet
  facet normal 0.951062 0 -0.309002
    outer loop
      vertex  151.54 -92.3387 -16.9163
      vertex  151.838 -72.3387 -16
      vertex  151.838 -91.9934 -16
    endloop
  endfacet
  facet normal 0.951061 0 -0.309002
    outer loop
      vertex  151.838 87.3161 -16
      vertex  151.838 65.1613 -16
      vertex  151.54 87.6613 -16.9163
    endloop
  endfacet
  facet normal 0.951056 7.87238e-07 -0.309017
    outer loop
      vertex  151.54 -92.3387 -16.9163
      vertex  137.781 -72.3387 -59.2624
      vertex  151.838 -72.3387 -16
    endloop
  endfacet
  facet normal 0.951057 -6.99767e-07 -0.309017
    outer loop
      vertex  151.54 87.6613 -16.9163
      vertex  151.838 65.1613 -16
      vertex  137.781 65.1613 -59.2624
    endloop
  endfacet
  facet normal 0.951056 0 -0.309017
    outer loop
      vertex  137.781 -92.3387 -59.2624
      vertex  137.781 -72.3387 -59.2624
      vertex  151.54 -92.3387 -16.9163
    endloop
  endfacet
  facet normal 0.951056 0 -0.309017
    outer loop
      vertex  151.54 87.6613 -16.9163
      vertex  137.781 65.1613 -59.2624
      vertex  137.781 87.6613 -59.2624
    endloop
  endfacet
  facet normal 0.325509 0 -0.945539
    outer loop
      vertex  125.31 87.6613 474.048
      vertex  130.984 87.6613 476.001
      vertex  125.31 -92.3387 474.048
    endloop
  endfacet
  facet normal 0.325509 0 -0.945539
    outer loop
      vertex  125.31 -92.3387 474.048
      vertex  130.984 87.6613 476.001
      vertex  130.984 -92.3387 476.001
    endloop
  endfacet
  facet normal 0.706128 -0.707117 0.0370067
    outer loop
      vertex  151.838 -91.9934 -16
      vertex  125.9 -92.3387 472.336
      vertex  151.54 -92.3387 -16.9163
    endloop
  endfacet
  facet normal 0.706137 -0.707107 0.0370072
    outer loop
      vertex  151.838 -91.9934 -16
      vertex  130.624 -88.3387 458.615
      vertex  125.9 -92.3387 472.336
    endloop
  endfacet
  facet normal 0.706142 -0.707103 0.0370073
    outer loop
      vertex  154.659 -88.3387 0
      vertex  130.624 -88.3387 458.615
      vertex  151.838 -91.9934 -16
    endloop
  endfacet
  facet normal 0.898808 0 -0.438342
    outer loop
      vertex  134.083 87.6613 482.357
      vertex  134.083 -92.3387 482.357
      vertex  130.984 87.6613 476.001
    endloop
  endfacet
  facet normal 0.898808 0 -0.438342
    outer loop
      vertex  130.984 87.6613 476.001
      vertex  134.083 -92.3387 482.357
      vertex  130.984 -92.3387 476.001
    endloop
  endfacet
  facet normal 0.587785 0 -0.809017
    outer loop
      vertex  100.98 -92.3387 -86
      vertex  100.98 -72.3387 -86
      vertex  137.781 -92.3387 -59.2624
    endloop
  endfacet
  facet normal 0.587785 0 -0.809017
    outer loop
      vertex  137.781 -92.3387 -59.2624
      vertex  100.98 -72.3387 -86
      vertex  137.781 -72.3387 -59.2624
    endloop
  endfacet
  facet normal 0.587785 0 -0.809017
    outer loop
      vertex  137.781 87.6613 -59.2624
      vertex  137.781 65.1613 -59.2624
      vertex  100.98 87.6613 -86
    endloop
  endfacet
  facet normal 0.587785 0 -0.809017
    outer loop
      vertex  100.98 87.6613 -86
      vertex  137.781 65.1613 -59.2624
      vertex  100.98 65.1613 -86
    endloop
  endfacet
  facet normal 0.945519 0 0.325566
    outer loop
      vertex  138.811 -42.3386 483.984
      vertex  129.044 -42.3386 512.35
      vertex  138.811 -97.3387 483.984
    endloop
  endfacet
  facet normal 0.945519 0 0.325566
    outer loop
      vertex  138.811 -97.3387 483.984
      vertex  129.044 -42.3386 512.35
      vertex  129.044 -97.3387 512.35
    endloop
  endfacet
  facet normal 0 1 0
    outer loop
      vertex  147.954 37.6614 518.861
      vertex  157.721 37.6614 490.496
      vertex  129.044 37.6614 512.35
    endloop
  endfacet
  facet normal 0 1 0
    outer loop
      vertex  129.044 37.6614 512.35
      vertex  157.721 37.6614 490.496
      vertex  138.811 37.6614 483.984
    endloop
  endfacet
  facet normal 0.945519 -0 0.325566
    outer loop
      vertex  129.044 37.6614 512.35
      vertex  138.811 37.6614 483.984
      vertex  129.044 92.6613 512.35
    endloop
  endfacet
  facet normal 0.945519 0 0.325566
    outer loop
      vertex  129.044 92.6613 512.35
      vertex  138.811 37.6614 483.984
      vertex  138.811 92.6613 483.984
    endloop
  endfacet
  facet normal 0 0 -1
    outer loop
      vertex  151.253 -36.8386 65
      vertex  68.6553 -36.8386 65
      vertex  151.253 35.6614 65
    endloop
  endfacet
  facet normal -0 0 -1
    outer loop
      vertex  151.253 35.6614 65
      vertex  68.6553 -36.8386 65
      vertex  68.6553 35.6614 65
    endloop
  endfacet
  facet normal 0.706128 0.707117 0.0370067
    outer loop
      vertex  151.54 87.6613 -16.9163
      vertex  125.9 87.6613 472.336
      vertex  151.838 87.3161 -16
    endloop
  endfacet
  facet normal 0.706137 0.707107 0.0370072
    outer loop
      vertex  151.838 87.3161 -16
      vertex  125.9 87.6613 472.336
      vertex  130.624 83.6613 458.615
    endloop
  endfacet
  facet normal 0.706142 0.707103 0.0370073
    outer loop
      vertex  151.838 87.3161 -16
      vertex  130.624 83.6613 458.615
      vertex  154.659 83.6613 0
    endloop
  endfacet
  facet normal -0 -1 0
    outer loop
      vertex  157.721 -42.3386 490.496
      vertex  147.954 -42.3386 518.861
      vertex  138.811 -42.3386 483.984
    endloop
  endfacet
  facet normal 0 -1 0
    outer loop
      vertex  138.811 -42.3386 483.984
      vertex  147.954 -42.3386 518.861
      vertex  129.044 -42.3386 512.35
    endloop
  endfacet
  facet normal 0.945517 -0 0.325573
    outer loop
      vertex  147.954 -42.3386 518.861
      vertex  157.721 -42.3386 490.496
      vertex  147.954 37.6614 518.861
    endloop
  endfacet
  facet normal 0.945517 0 0.325573
    outer loop
      vertex  147.954 37.6614 518.861
      vertex  157.721 -42.3386 490.496
      vertex  157.721 37.6614 490.496
    endloop
  endfacet
  facet normal -0 1 0
    outer loop
      vertex  -16.8447 75.6613 507.544
      vertex  -12.8447 75.6613 509
      vertex  -16.8447 75.6613 450.456
    endloop
  endfacet
  facet normal -0 1 0
    outer loop
      vertex  -16.8447 75.6613 450.456
      vertex  -12.8447 75.6613 509
      vertex  -12.8447 75.6613 449
    endloop
  endfacet
  facet normal 0.258149 0.469483 0.84436
    outer loop
      vertex  -12.8447 83.6613 552.224
      vertex  112.336 87.6613 511.728
      vertex  -8.8447 87.6613 548.777
    endloop
  endfacet
  facet normal 0.25815 0.469477 0.844364
    outer loop
      vertex  -12.8447 83.6613 552.224
      vertex  108.163 68.1613 523.846
      vertex  112.336 87.6613 511.728
    endloop
  endfacet
  facet normal 0.25815 0.46947 0.844367
    outer loop
      vertex  -12.8447 68.1613 560.842
      vertex  108.163 68.1613 523.846
      vertex  -12.8447 83.6613 552.224
    endloop
  endfacet
  facet normal -0.258859 0 0.965915
    outer loop
      vertex  11.6553 -72.8387 696.34
      vertex  11.6553 68.1613 696.34
      vertex  6.65529 -72.8387 695
    endloop
  endfacet
  facet normal -0.707091 0 0.707123
    outer loop
      vertex  11.6553 -72.8387 696.34
      vertex  15.3155 68.1613 700
      vertex  11.6553 68.1613 696.34
    endloop
  endfacet
  facet normal -0.258859 0 0.965915
    outer loop
      vertex  6.65529 -72.8387 695
      vertex  11.6553 68.1613 696.34
      vertex  6.65529 68.1613 695
    endloop
  endfacet
  facet normal -0.707091 0 0.707123
    outer loop
      vertex  15.3155 -72.8387 700
      vertex  15.3155 68.1613 700
      vertex  11.6553 -72.8387 696.34
    endloop
  endfacet
  facet normal 0 -1 0
    outer loop
      vertex  -12.8447 -72.8387 680.277
      vertex  108.163 -72.8387 523.846
      vertex  45.164 -72.8387 706.81
    endloop
  endfacet
  facet normal 0 -1 0
    outer loop
      vertex  -12.8447 -72.8387 560.842
      vertex  108.163 -72.8387 523.846
      vertex  -12.8447 -72.8387 680.277
    endloop
  endfacet
  facet normal 0 -1 0
    outer loop
      vertex  -12.8447 -72.8387 680.277
      vertex  45.164 -72.8387 706.81
      vertex  11.6553 -72.8387 696.34
    endloop
  endfacet
  facet normal 0 -1 0
    outer loop
      vertex  45.164 -72.8387 706.81
      vertex  15.3155 -72.8387 700
      vertex  11.6553 -72.8387 696.34
    endloop
  endfacet
  facet normal 0 -1 0
    outer loop
      vertex  11.6553 -72.8387 696.34
      vertex  6.65529 -72.8387 695
      vertex  -12.8447 -72.8387 680.277
    endloop
  endfacet
  facet normal 0 -1 0
    outer loop
      vertex  45.164 -72.8387 706.81
      vertex  16.6553 -72.8387 705
      vertex  15.3155 -72.8387 700
    endloop
  endfacet
  facet normal 0 -1 0
    outer loop
      vertex  -12.8447 -72.8387 680.277
      vertex  6.65529 -72.8387 695
      vertex  1.6553 -72.8387 696.34
    endloop
  endfacet
  facet normal 0 -1 -0
    outer loop
      vertex  40.3079 -72.8387 715.345
      vertex  16.6553 -72.8387 705
      vertex  45.164 -72.8387 706.81
    endloop
  endfacet
  facet normal 0 -1 0
    outer loop
      vertex  -12.8447 -72.8387 680.277
      vertex  1.6553 -72.8387 696.34
      vertex  -19.775 -72.8387 688.072
    endloop
  endfacet
  facet normal 0 -1 0
    outer loop
      vertex  40.3079 -72.8387 715.345
      vertex  15.3155 -72.8387 710
      vertex  16.6553 -72.8387 705
    endloop
  endfacet
  facet normal 0 -1 0
    outer loop
      vertex  -19.775 -72.8387 688.072
      vertex  1.6553 -72.8387 696.34
      vertex  -2.00497 -72.8387 700
    endloop
  endfacet
  facet normal 0 -1 -0
    outer loop
      vertex  34.0435 -72.8387 722.907
      vertex  15.3155 -72.8387 710
      vertex  40.3079 -72.8387 715.345
    endloop
  endfacet
  facet normal 0 -1 0
    outer loop
      vertex  -19.775 -72.8387 688.072
      vertex  -2.00497 -72.8387 700
      vertex  -23.7123 -72.8387 697.068
    endloop
  endfacet
  facet normal 0 -1 -0
    outer loop
      vertex  26.561 -72.8387 729.267
      vertex  15.3155 -72.8387 710
      vertex  34.0435 -72.8387 722.907
    endloop
  endfacet
  facet normal 0 -1 0
    outer loop
      vertex  -23.7123 -72.8387 697.068
      vertex  -2.00497 -72.8387 700
      vertex  -3.34471 -72.8387 705
    endloop
  endfacet
  facet normal 0 -1 0
    outer loop
      vertex  26.561 -72.8387 729.267
      vertex  11.6553 -72.8387 713.66
      vertex  15.3155 -72.8387 710
    endloop
  endfacet
  facet normal 0 -1 0
    outer loop
      vertex  -23.7123 -72.8387 697.068
      vertex  -3.34471 -72.8387 705
      vertex  -24.6771 -72.8387 706.841
    endloop
  endfacet
  facet normal 0 -1 -0
    outer loop
      vertex  18.0879 -72.8387 734.23
      vertex  11.6553 -72.8387 713.66
      vertex  26.561 -72.8387 729.267
    endloop
  endfacet
  facet normal 0 -1 0
    outer loop
      vertex  -24.6771 -72.8387 706.841
      vertex  -3.34471 -72.8387 705
      vertex  -22.5749 -72.8387 716.433
    endloop
  endfacet
  facet normal 0 -1 0
    outer loop
      vertex  18.0879 -72.8387 734.23
      vertex  6.65529 -72.8387 715
      vertex  11.6553 -72.8387 713.66
    endloop
  endfacet
  facet normal 0 -1 0
    outer loop
      vertex  -3.34471 -72.8387 705
      vertex  -2.00497 -72.8387 710
      vertex  -22.5749 -72.8387 716.433
    endloop
  endfacet
  facet normal 0 -1 -0
    outer loop
      vertex  8.4958 -72.8387 736.332
      vertex  6.65529 -72.8387 715
      vertex  18.0879 -72.8387 734.23
    endloop
  endfacet
  facet normal 0 -1 0
    outer loop
      vertex  -22.5749 -72.8387 716.433
      vertex  -2.00497 -72.8387 710
      vertex  -17.6114 -72.8387 724.906
    endloop
  endfacet
  facet normal 0 -1 0
    outer loop
      vertex  -1.27654 -72.8387 735.368
      vertex  6.65529 -72.8387 715
      vertex  8.4958 -72.8387 736.332
    endloop
  endfacet
  facet normal 0 -1 0
    outer loop
      vertex  -17.6114 -72.8387 724.906
      vertex  -2.00497 -72.8387 710
      vertex  1.6553 -72.8387 713.66
    endloop
  endfacet
  facet normal 0 -1 0
    outer loop
      vertex  -1.27654 -72.8387 735.368
      vertex  1.6553 -72.8387 713.66
      vertex  6.65529 -72.8387 715
    endloop
  endfacet
  facet normal 0 -1 0
    outer loop
      vertex  -17.6114 -72.8387 724.906
      vertex  1.6553 -72.8387 713.66
      vertex  -10.2725 -72.8387 731.43
    endloop
  endfacet
  facet normal 0 -1 0
    outer loop
      vertex  -10.2725 -72.8387 731.43
      vertex  1.6553 -72.8387 713.66
      vertex  -1.27654 -72.8387 735.368
    endloop
  endfacet
  facet normal 0 -1 -0
    outer loop
      vertex  -8.8447 -92.3387 164.833
      vertex  -98.5904 -92.3387 108.754
      vertex  -7.77845 -92.3387 25
    endloop
  endfacet
  facet normal 0 -1 0
    outer loop
      vertex  -7.77845 -92.3387 25
      vertex  -98.5904 -92.3387 108.754
      vertex  -106.333 -92.3387 97.4578
    endloop
  endfacet
  facet normal 0 -1 0
    outer loop
      vertex  21.0891 -92.3387 25
      vertex  -8.8447 -92.3387 164.833
      vertex  -7.77845 -92.3387 25
    endloop
  endfacet
  facet normal -0 -1 0
    outer loop
      vertex  -7.77845 -92.3387 25
      vertex  -106.333 -92.3387 97.4578
      vertex  -22.2122 -92.3387 0
    endloop
  endfacet
  facet normal 0 -1 0
    outer loop
      vertex  125.9 -92.3387 472.336
      vertex  -8.8447 -92.3387 164.833
      vertex  21.0891 -92.3387 25
    endloop
  endfacet
  facet normal 0 -1 0
    outer loop
      vertex  -22.2122 -92.3387 0
      vertex  -106.333 -92.3387 97.4578
      vertex  -108.408 -92.3387 83.9213
    endloop
  endfacet
  facet normal 0 -1 0
    outer loop
      vertex  125.9 -92.3387 472.336
      vertex  104.772 -92.3387 472.264
      vertex  -8.8447 -92.3387 164.833
    endloop
  endfacet
  facet normal 0 -1 0
    outer loop
      vertex  21.0891 -92.3387 25
      vertex  151.54 -92.3387 -16.9163
      vertex  125.9 -92.3387 472.336
    endloop
  endfacet
  facet normal -0 -1 0
    outer loop
      vertex  -22.2122 -92.3387 0
      vertex  -108.408 -92.3387 83.9213
      vertex  -66.5007 -92.3387 -53.1509
    endloop
  endfacet
  facet normal 0 -1 -0
    outer loop
      vertex  125.31 -92.3387 474.048
      vertex  104.772 -92.3387 472.264
      vertex  125.9 -92.3387 472.336
    endloop
  endfacet
  facet normal 0 -1 0
    outer loop
      vertex  -8.8447 -92.3387 164.833
      vertex  104.772 -92.3387 472.264
      vertex  -8.8447 -92.3387 548.777
    endloop
  endfacet
  facet normal 0 -1 0
    outer loop
      vertex  35.5228 -92.3387 0
      vertex  151.54 -92.3387 -16.9163
      vertex  21.0891 -92.3387 25
    endloop
  endfacet
  facet normal 0 -1 0
    outer loop
      vertex  -21.2878 -92.3387 -86
      vertex  -22.2122 -92.3387 0
      vertex  -66.5007 -92.3387 -53.1509
    endloop
  endfacet
  facet normal -0 -1 0
    outer loop
      vertex  125.31 -92.3387 474.048
      vertex  134.083 -92.3387 482.357
      vertex  104.772 -92.3387 472.264
    endloop
  endfacet
  facet normal 0 -1 0
    outer loop
      vertex  -8.8447 -92.3387 548.777
      vertex  104.772 -92.3387 472.264
      vertex  95.0052 -92.3387 500.63
    endloop
  endfacet
  facet normal 0 -1 0
    outer loop
      vertex  35.5228 -92.3387 0
      vertex  137.781 -92.3387 -59.2624
      vertex  151.54 -92.3387 -16.9163
    endloop
  endfacet
  facet normal 0 -1 0
    outer loop
      vertex  -21.2878 -92.3387 -86
      vertex  -7.77845 -92.3387 -25
      vertex  -22.2122 -92.3387 0
    endloop
  endfacet
  facet normal -0 -1 0
    outer loop
      vertex  130.984 -92.3387 476.001
      vertex  134.083 -92.3387 482.357
      vertex  125.31 -92.3387 474.048
    endloop
  endfacet
  facet normal 0 -1 0
    outer loop
      vertex  -8.8447 -92.3387 548.777
      vertex  95.0052 -92.3387 500.63
      vertex  112.336 -92.3387 511.728
    endloop
  endfacet
  facet normal 0 -1 0
    outer loop
      vertex  21.0891 -92.3387 -25
      vertex  137.781 -92.3387 -59.2624
      vertex  35.5228 -92.3387 0
    endloop
  endfacet
  facet normal -0 -1 0
    outer loop
      vertex  21.0891 -92.3387 -25
      vertex  -7.77845 -92.3387 -25
      vertex  -21.2878 -92.3387 -86
    endloop
  endfacet
  facet normal 0 -1 -0
    outer loop
      vertex  112.336 -92.3387 511.728
      vertex  95.0052 -92.3387 500.63
      vertex  118.009 -92.3387 513.682
    endloop
  endfacet
  facet normal 0 -1 0
    outer loop
      vertex  21.0891 -92.3387 -25
      vertex  100.98 -92.3387 -86
      vertex  137.781 -92.3387 -59.2624
    endloop
  endfacet
  facet normal 0 -1 0
    outer loop
      vertex  -21.2878 -92.3387 -86
      vertex  100.98 -92.3387 -86
      vertex  21.0891 -92.3387 -25
    endloop
  endfacet
  facet normal 0 -1 0
    outer loop
      vertex  95.0052 -92.3387 500.63
      vertex  124.176 -92.3387 510.674
      vertex  118.009 -92.3387 513.682
    endloop
  endfacet
  facet normal 0 1 0
    outer loop
      vertex  129.044 92.6613 512.35
      vertex  138.811 92.6613 483.984
      vertex  95.0052 92.6613 500.63
    endloop
  endfacet
  facet normal 0 1 0
    outer loop
      vertex  95.0052 92.6613 500.63
      vertex  138.811 92.6613 483.984
      vertex  104.772 92.6613 472.264
    endloop
  endfacet
  facet normal 0.438385 0 0.898787
    outer loop
      vertex  118.009 87.6613 513.682
      vertex  118.009 -92.3387 513.682
      vertex  124.176 87.6613 510.674
    endloop
  endfacet
  facet normal 0.438385 0 0.898787
    outer loop
      vertex  124.176 87.6613 510.674
      vertex  118.009 -92.3387 513.682
      vertex  124.176 -92.3387 510.674
    endloop
  endfacet
  facet normal -0.258826 0 0.965924
    outer loop
      vertex  11.6553 -92.3387 -8.66022
      vertex  11.6553 -72.3387 -8.66022
      vertex  6.65529 -92.3387 -10
    endloop
  endfacet
  facet normal -0.707108 0 0.707105
    outer loop
      vertex  11.6553 -92.3387 -8.66022
      vertex  15.3155 -72.3387 -5
      vertex  11.6553 -72.3387 -8.66022
    endloop
  endfacet
  facet normal -0.258826 0 0.965924
    outer loop
      vertex  6.65529 -92.3387 -10
      vertex  11.6553 -72.3387 -8.66022
      vertex  6.65529 -72.3387 -10
    endloop
  endfacet
  facet normal -0.707108 0 0.707105
    outer loop
      vertex  15.3155 -92.3387 -5
      vertex  15.3155 -72.3387 -5
      vertex  11.6553 -92.3387 -8.66022
    endloop
  endfacet
  facet normal -0.965923 0 0.258828
    outer loop
      vertex  15.3155 -92.3387 -5
      vertex  16.6553 -72.3387 0
      vertex  15.3155 -72.3387 -5
    endloop
  endfacet
  facet normal -0.965923 0 0.258828
    outer loop
      vertex  16.6553 -92.3387 0
      vertex  16.6553 -72.3387 0
      vertex  15.3155 -92.3387 -5
    endloop
  endfacet
  facet normal -0.866025 0 -0.5
    outer loop
      vertex  -22.2122 -142.339 0
      vertex  -22.2122 -92.3387 0
      vertex  -7.77845 -142.339 -25
    endloop
  endfacet
  facet normal -0.866025 0 -0.5
    outer loop
      vertex  -7.77845 -142.339 -25
      vertex  -22.2122 -92.3387 0
      vertex  -7.77845 -92.3387 -25
    endloop
  endfacet
  facet normal -0 1 0
    outer loop
      vertex  -3.34471 -92.3387 0
      vertex  -2.00497 -92.3387 5
      vertex  -2.00497 -92.3387 -5
    endloop
  endfacet
  facet normal 0 1 0
    outer loop
      vertex  -2.00497 -92.3387 -5
      vertex  -2.00497 -92.3387 5
      vertex  6.65529 -92.3387 10
    endloop
  endfacet
  facet normal 0 1 0
    outer loop
      vertex  -2.00497 -92.3387 5
      vertex  1.6553 -92.3387 8.66028
      vertex  6.65529 -92.3387 10
    endloop
  endfacet
  facet normal -0 1 0
    outer loop
      vertex  -2.00497 -92.3387 -5
      vertex  6.65529 -92.3387 10
      vertex  1.6553 -92.3387 -8.66022
    endloop
  endfacet
  facet normal -0 1 0
    outer loop
      vertex  1.6553 -92.3387 -8.66022
      vertex  6.65529 -92.3387 10
      vertex  6.65529 -92.3387 -10
    endloop
  endfacet
  facet normal 0 1 0
    outer loop
      vertex  11.6553 -92.3387 8.66028
      vertex  6.65529 -92.3387 -10
      vertex  6.65529 -92.3387 10
    endloop
  endfacet
  facet normal 0 1 0
    outer loop
      vertex  15.3155 -92.3387 5
      vertex  6.65529 -92.3387 -10
      vertex  11.6553 -92.3387 8.66028
    endloop
  endfacet
  facet normal 0 1 0
    outer loop
      vertex  15.3155 -92.3387 5
      vertex  15.3155 -92.3387 -5
      vertex  6.65529 -92.3387 -10
    endloop
  endfacet
  facet normal 0 1 0
    outer loop
      vertex  16.6553 -92.3387 0
      vertex  15.3155 -92.3387 -5
      vertex  15.3155 -92.3387 5
    endloop
  endfacet
  facet normal 0 1 0
    outer loop
      vertex  15.3155 -92.3387 -5
      vertex  11.6553 -92.3387 -8.66022
      vertex  6.65529 -92.3387 -10
    endloop
  endfacet
endsolid
