solid
  facet normal 0 -1 0
    outer loop
      vertex  -350 -100 0
      vertex  350 -100 2000
      vertex  -350 -100 2000
    endloop
  endfacet
  facet normal 0 -1 0
    outer loop
      vertex  -350 -100 0
      vertex  350 -100 0
      vertex  350 -100 2000
    endloop
  endfacet
  facet normal 1 0 0
    outer loop
      vertex  350 -100 0
      vertex  350 100 2000
      vertex  350 -100 2000
    endloop
  endfacet
  facet normal 1 0 0
    outer loop
      vertex  350 -100 0
      vertex  350 100 0
      vertex  350 100 2000
    endloop
  endfacet
  facet normal 0 1 -0
    outer loop
      vertex  350 100 0
      vertex  -350 100 2000
      vertex  350 100 2000
    endloop
  endfacet
  facet normal 0 1 0
    outer loop
      vertex  350 100 0
      vertex  -350 100 0
      vertex  -350 100 2000
    endloop
  endfacet
  facet normal -1 0 0
    outer loop
      vertex  -350 100 0
      vertex  -350 -100 2000
      vertex  -350 100 2000
    endloop
  endfacet
  facet normal -1 0 0
    outer loop
      vertex  -350 100 0
      vertex  -350 -100 0
      vertex  -350 -100 2000
    endloop
  endfacet
  facet normal 0 0 -1
    outer loop
      vertex  -350 -100 0
      vertex  -350 100 0
      vertex  350 100 0
    endloop
  endfacet
  facet normal 0 0 -1
    outer loop
      vertex  -350 -100 0
      vertex  350 100 0
      vertex  350 -100 0
    endloop
  endfacet
  facet normal 0 0 1
    outer loop
      vertex  -350 -100 2000
      vertex  350 -100 2000
      vertex  350 100 2000
    endloop
  endfacet
  facet normal 0 0 1
    outer loop
      vertex  -350 -100 2000
      vertex  350 100 2000
      vertex  -350 100 2000
    endloop
  endfacet
endsolid
